<svg xmlns="http://www.w3.org/2000/svg" xmlns:xlink="http://www.w3.org/1999/xlink" id="icon" width="16" height="16" x="0" style="enable-background:new 0 0 16 16" y="0" version="1.1" viewBox="0 0 16 16" xml:space="preserve"><style type="text/css">.st0{fill:none}</style><title>light</title><rect width="1" height="2.5" x="7.5" y="1"/><rect width="2.5" height="1" x="10.8" y="3.4" transform="matrix(0.7071 -0.7071 0.7071 0.7071 0.763 9.6862)"/><rect width="2.5" height="1" x="12.5" y="7.5"/><rect width="1" height="2.5" x="11.6" y="10.8" transform="matrix(0.7071 -0.7071 0.7071 0.7071 -5.0012 12.0762)"/><rect width="1" height="2.5" x="7.5" y="12.5"/><rect width="2.5" height="1" x="2.7" y="11.6" transform="matrix(0.7071 -0.7071 0.7071 0.7071 -7.3897 6.3156)"/><rect width="2.5" height="1" x="1" y="7.5"/><rect width="1" height="2.5" x="3.4" y="2.7" transform="matrix(0.7071 -0.7071 0.7071 0.7071 -1.6256 3.9256)"/><path d="M8,6c1.1,0,2,0.9,2,2s-0.9,2-2,2S6,9.1,6,8S6.9,6,8,6 M8,5C6.3,5,5,6.3,5,8s1.3,3,3,3s3-1.3,3-3S9.7,5,8,5z"/><rect id="_Transparent_Rectangle_" width="16" height="16" class="st0"/></svg>