<svg xmlns="http://www.w3.org/2000/svg" xmlns:xlink="http://www.w3.org/1999/xlink" id="icon" width="16" height="16" x="0" style="enable-background:new 0 0 16 16" y="0" version="1.1" viewBox="0 0 16 16" xml:space="preserve"><style type="text/css">.st0{fill:none}</style><title>calendar</title><path d="M13,2h-2V1h-1v1H6V1H5v1H3C2.4,2,2,2.4,2,3v10c0,0.6,0.4,1,1,1h10c0.6,0,1-0.4,1-1V3C14,2.4,13.6,2,13,2z M13,13H3V6h10V13z M13,5H3V3h2v1h1V3h4v1h1V3h2V5z"/><rect id="_Transparent_Rectangle_" width="16" height="16" class="st0"/></svg>