<svg xmlns="http://www.w3.org/2000/svg" xmlns:xlink="http://www.w3.org/1999/xlink" id="icon" width="16" height="16" x="0" style="enable-background:new 0 0 16 16" y="0" version="1.1" viewBox="0 0 16 16" xml:space="preserve"><style type="text/css">.st0{fill:none}</style><title>document</title><path d="M12.9,4.7L9.4,1.2C9.3,1.1,9.1,1,9,1H4C3.4,1,3,1.4,3,2v12c0,0.6,0.4,1,1,1h8c0.6,0,1-0.4,1-1V5C13,4.9,12.9,4.7,12.9,4.7z M9,2.2L11.8,5H9V2.2z M12,14H4V2h4v3c0,0.6,0.4,1,1,1h3V14z"/><rect width="6" height="1" x="5" y="11"/><rect width="6" height="1" x="5" y="8"/><rect width="16" height="16" class="st0"/></svg>