<svg xmlns="http://www.w3.org/2000/svg" xmlns:xlink="http://www.w3.org/1999/xlink" id="icon" width="16" height="16" x="0" style="enable-background:new 0 0 16 16" y="0" version="1.1" viewBox="0 0 16 16" xml:space="preserve"><style type="text/css">.st0{fill:none}</style><title>edit</title><rect width="14" height="1" x="1" y="13"/><path d="M12.7,4.5c0.4-0.4,0.4-1,0-1.4c0,0,0,0,0,0l-1.8-1.8c-0.4-0.4-1-0.4-1.4,0c0,0,0,0,0,0L2,8.8V12h3.2L12.7,4.5z M10.2,2	L12,3.8l-1.5,1.5L8.7,3.5L10.2,2z M3,11V9.2l5-5L9.8,6l-5,5H3z"/><rect id="_Transparent_Rectangle_" width="16" height="16" class="st0"/></svg>