<svg xmlns="http://www.w3.org/2000/svg" xmlns:xlink="http://www.w3.org/1999/xlink" id="icon" width="16" height="16" x="0" style="enable-background:new 0 0 16 16" y="0" version="1.1" viewBox="0 0 16 16" xml:space="preserve"><style type="text/css">.st0{fill:none}</style><title>new-tab</title><path d="M13,13H3V3h5V2H3C2.4,2,2,2.4,2,3v10c0,0.6,0.4,1,1,1h10c0.6,0,1-0.4,1-1V8h-1V13z"/><polygon points="13 3 13 1 12 1 12 3 10 3 10 4 12 4 12 6 13 6 13 4 15 4 15 3"/><rect id="_Transparent_Rectangle_" width="16" height="16" class="st0"/></svg>