<svg xmlns="http://www.w3.org/2000/svg" xmlns:xlink="http://www.w3.org/1999/xlink" id="icon" width="16" height="16" x="0" style="enable-background:new 0 0 16 16" y="0" version="1.1" viewBox="0 0 16 16" xml:space="preserve"><style type="text/css">.st0{fill:none}.st1{opacity:0;fill:#fff}</style><rect id="Transparent_Rectangle" width="16" height="16" class="st0"/><path id="Compound_Path" d="M8,1C4.2,1,1,4.2,1,8s3.2,7,7,7s7-3.1,7-7S11.9,1,8,1z M7.5,4h1v5h-1C7.5,9,7.5,4,7.5,4z M8,12.2	c-0.4,0-0.8-0.4-0.8-0.8s0.3-0.8,0.8-0.8c0.4,0,0.8,0.4,0.8,0.8S8.4,12.2,8,12.2z"/><path id="inner-path" d="M7.5,4h1v5h-1C7.5,9,7.5,4,7.5,4z M8,12.2c-0.4,0-0.8-0.4-0.8-0.8s0.3-0.8,0.8-0.8	c0.4,0,0.8,0.4,0.8,0.8S8.4,12.2,8,12.2z" class="st1"/></svg>