<svg xmlns="http://www.w3.org/2000/svg" xmlns:xlink="http://www.w3.org/1999/xlink" x="0" y="0" version="1.1" viewBox="0 0 48 48" xml:space="preserve" style="enable-background:new 0 0 48 48"><g id="amsterdam_canal"><rect style="fill:#fff" width="48" height="48"/><g id="amsterdam_canal_1_"><circle cx="14" cy="10.5" r=".5"/><g><g><path style="fill:none;stroke:#000;stroke-width:.72;stroke-linecap:square;stroke-miterlimit:10" d="M9,34 c2.761,0,5,2.239,5,5"/><path style="fill:none;stroke:#000;stroke-width:.72;stroke-linecap:square;stroke-miterlimit:10" d="M34,39 c0-2.761,2.239-5,5-5"/><path style="fill:none;stroke:#000;stroke-width:.72;stroke-linecap:square;stroke-miterlimit:10" d="M19,39 c0-2.761,2.239-5,5-5s5,2.239,5,5"/><rect style="fill:none;stroke:#000;stroke-width:.72;stroke-linecap:round;stroke-linejoin:round;stroke-miterlimit:10" width="10" height="16.938" x="19" y="15.062"/><polyline style="fill:none;stroke:#000;stroke-width:.72;stroke-linecap:round;stroke-linejoin:round;stroke-miterlimit:10" points="29 17 39 17 39 32 9 32 9 19 19 19"/><rect style="fill:none;stroke:#000;stroke-width:.72;stroke-linecap:round;stroke-miterlimit:10" width="4" height="5" x="12" y="27"/><line style="fill:none;stroke:#000;stroke-width:.72;stroke-linecap:round;stroke-miterlimit:10" x1="14" x2="14" y1="32" y2="27"/><rect style="fill:none;stroke:#000;stroke-width:.72;stroke-linecap:round;stroke-miterlimit:10" width="2" height="4" x="11" y="21"/><rect style="fill:none;stroke:#000;stroke-width:.72;stroke-linecap:round;stroke-miterlimit:10" width="2" height="4" x="15" y="21"/><rect style="fill:none;stroke:#000;stroke-width:.72;stroke-linecap:round;stroke-miterlimit:10" width="2" height="3" x="21" y="27"/><rect style="fill:none;stroke:#000;stroke-width:.72;stroke-linecap:round;stroke-miterlimit:10" width="2" height="5" x="25" y="27"/><rect style="fill:none;stroke:#000;stroke-width:.72;stroke-linecap:round;stroke-miterlimit:10" width="2" height="4" x="25" y="21"/><rect style="fill:none;stroke:#000;stroke-width:.72;stroke-linecap:round;stroke-miterlimit:10" width="2" height="4" x="21" y="21"/><rect style="fill:none;stroke:#000;stroke-width:.72;stroke-linecap:round;stroke-miterlimit:10" width="2" height="5" x="31" y="25"/><rect style="fill:none;stroke:#000;stroke-width:.72;stroke-linecap:round;stroke-miterlimit:10" width="2" height="2" x="33" y="19"/><line style="fill:none;stroke:#000;stroke-width:.72;stroke-miterlimit:10" x1="37" x2="37" y1="19" y2="21"/><line style="fill:none;stroke:#000;stroke-width:.72;stroke-linejoin:round;stroke-miterlimit:10" x1="34" x2="34" y1="13" y2="15"/><line style="fill:none;stroke:#000;stroke-width:.72;stroke-miterlimit:10" x1="31" x2="31" y1="19" y2="21"/><rect style="fill:none;stroke:#000;stroke-width:.72;stroke-linecap:round;stroke-miterlimit:10" width="2" height="7" x="35" y="25"/><line style="fill:none;stroke:#000;stroke-width:.72;stroke-linecap:round;stroke-miterlimit:10" x1="29" x2="39" y1="23" y2="23"/><line style="fill:none;stroke:#000;stroke-width:.72;stroke-linejoin:round;stroke-miterlimit:10" x1="31" x2="37" y1="12" y2="12"/><rect style="fill:none;stroke:#000;stroke-width:.72;stroke-linecap:round;stroke-miterlimit:10" width="2" height="2" x="25" y="17"/><rect style="fill:none;stroke:#000;stroke-width:.72;stroke-linecap:round;stroke-miterlimit:10" width="2" height="2" x="21" y="17"/><path style="fill:none;stroke:#000;stroke-width:.72;stroke-linejoin:round;stroke-miterlimit:10" d="M23,15v-1 c0-0.552,0.448-1,1-1s1,0.448,1,1v1"/><line style="fill:none;stroke:#000;stroke-width:.72;stroke-linecap:round;stroke-miterlimit:10" x1="18" x2="15" y1="19" y2="14"/><line style="fill:none;stroke:#000;stroke-width:.72;stroke-linecap:round;stroke-miterlimit:10" x1="13" x2="10" y1="14" y2="19"/><polyline style="fill:none;stroke:#000;stroke-width:.72;stroke-linecap:round;stroke-linejoin:round;stroke-miterlimit:10" points="13 14 13 12 15 12 15 14"/><path style="fill:none;stroke:#000;stroke-width:.72;stroke-miterlimit:10" d="M13,19v-1c0-0.552,0.448-1,1-1s1,0.448,1,1 v1"/></g><g><path style="fill:none;stroke:#000;stroke-width:.72;stroke-linecap:round;stroke-linejoin:round;stroke-miterlimit:10" d="M32,12c0,0,0,3-2,5"/><path style="fill:none;stroke:#000;stroke-width:.72;stroke-linecap:round;stroke-linejoin:round;stroke-miterlimit:10" d="M36,12c0,0,0,3,2,5"/><path style="fill:none;stroke:#000;stroke-width:.72;stroke-linecap:round;stroke-linejoin:round;stroke-miterlimit:10" d="M36,12c0-1.105-0.895-2-2-2s-2,0.895-2,2"/></g><polyline style="fill:none;stroke:#000;stroke-width:.72;stroke-linecap:round;stroke-linejoin:round;stroke-miterlimit:10" points="28 15 28 13 27 13 27 11 25.111 11 25.111 8.945 22.889 8.945 22.889 11 21 11 21 13 20 13 20 15"/></g></g></g></svg>