<svg xmlns="http://www.w3.org/2000/svg" xmlns:xlink="http://www.w3.org/1999/xlink" x="0" y="0" version="1.1" viewBox="0 0 48 48" xml:space="preserve" style="enable-background:new 0 0 48 48"><g id="amsterdam_windmill"><rect style="fill:#fff" width="48" height="48"/><g id="amsterdam_windmill_1_"><line style="fill:none;stroke:#000;stroke-width:.72;stroke-linejoin:round;stroke-miterlimit:10" x1="15" x2="33" y1="39" y2="39"/><g><g><line style="fill:none;stroke:#000;stroke-width:.72;stroke-linejoin:round;stroke-miterlimit:10" x1="21.985" x2="21.985" y1="33" y2="31"/><line style="fill:none;stroke:#000;stroke-width:.72;stroke-linejoin:round;stroke-miterlimit:10" x1="21.985" x2="21.985" y1="38" y2="36"/><line style="fill:none;stroke:#000;stroke-width:.72;stroke-linejoin:round;stroke-miterlimit:10" x1="26.985" x2="26.985" y1="30.937" y2="33"/><line style="fill:none;stroke:#000;stroke-width:.72;stroke-linejoin:round;stroke-miterlimit:10" x1="22.027" x2="22.027" y1="26" y2="28"/></g><line style="fill:none;stroke:#000;stroke-width:.72;stroke-linejoin:round;stroke-miterlimit:10" x1="30" x2="30" y1="34" y2="39"/><line style="fill:none;stroke:#000;stroke-width:.72;stroke-linejoin:round;stroke-miterlimit:10" x1="18" x2="18" y1="34" y2="39"/></g><g><g><g><path style="fill:none;stroke:#000;stroke-width:.72;stroke-linejoin:round;stroke-miterlimit:10" d="M26.985,39v-2 c0-0.552-0.448-1-1-1s-1,0.448-1,1v2"/></g></g></g><g><line style="fill:none;stroke:#000;stroke-width:.72;stroke-linecap:round;stroke-miterlimit:10" x1="25.994" x2="21.991" y1="23.009" y2="19.006"/><line style="fill:none;stroke:#000;stroke-width:.72;stroke-linecap:round;stroke-miterlimit:10" x1="25.994" x2="21.991" y1="19.006" y2="23.009"/><rect style="fill:none;stroke:#000;stroke-width:.72;stroke-linecap:round;stroke-miterlimit:10" width="11.321" height="2.83" x="25.337" y="14.589" transform="matrix(0.7071 -0.7071 0.7071 0.7071 -2.238 26.6057)"/><rect style="fill:none;stroke:#000;stroke-width:.72;stroke-linecap:round;stroke-miterlimit:10" width="11.321" height="2.83" x="11.328" y="24.595" transform="matrix(0.7071 -0.7071 0.7071 0.7071 -13.4165 19.6308)"/><rect style="fill:none;stroke:#000;stroke-width:.72;stroke-linecap:round;stroke-miterlimit:10" width="2.83" height="11.321" x="27.581" y="22.351" transform="matrix(0.7071 -0.7071 0.7071 0.7071 -11.3147 28.7075)"/><rect style="fill:none;stroke:#000;stroke-width:.72;stroke-linecap:round;stroke-miterlimit:10" width="2.83" height="11.321" x="17.574" y="8.343" transform="matrix(0.7071 -0.7071 0.7071 0.7071 -4.3398 17.529)"/></g><g><line style="fill:none;stroke:#000;stroke-width:.72;stroke-linecap:round;stroke-miterlimit:10" x1="25.986" x2="21.984" y1="23.009" y2="19.006"/><line style="fill:none;stroke:#000;stroke-width:.72;stroke-linecap:round;stroke-miterlimit:10" x1="25.986" x2="21.984" y1="19.006" y2="23.009"/><polyline style="fill:none;stroke:#000;stroke-width:.72;stroke-miterlimit:10" points="27.988 21.007 25.986 19.006 33.991 11.001 35.993 13.002"/><line style="fill:none;stroke:#000;stroke-width:.72;stroke-miterlimit:10" x1="31.985" x2="33.986" y1="12.999" y2="15"/><line style="fill:none;stroke:#000;stroke-width:.72;stroke-miterlimit:10" x1="29.985" x2="31.986" y1="14.999" y2="17"/><line style="fill:none;stroke:#000;stroke-width:.72;stroke-miterlimit:10" x1="27.985" x2="29.986" y1="16.999" y2="19"/><line style="fill:none;stroke:#000;stroke-width:.72;stroke-linecap:round;stroke-miterlimit:10" x1="27.986" x2="25.985" y1="21" y2="18.999"/><path style="fill:none;stroke:#000;stroke-width:.72;stroke-linecap:round;stroke-miterlimit:10" d="M11.978,29.012"/><polyline style="fill:none;stroke:#000;stroke-width:.72;stroke-miterlimit:10" points="19.983 21.007 21.984 23.009 13.979 31.014 11.978 29.012"/><line style="fill:none;stroke:#000;stroke-width:.72;stroke-miterlimit:10" x1="13.988" x2="15.989" y1="27.002" y2="29.004"/><line style="fill:none;stroke:#000;stroke-width:.72;stroke-miterlimit:10" x1="15.998" x2="17.999" y1="24.993" y2="26.994"/><line style="fill:none;stroke:#000;stroke-width:.72;stroke-miterlimit:10" x1="18.007" x2="20.009" y1="22.983" y2="24.984"/><polyline style="fill:none;stroke:#000;stroke-width:.72;stroke-miterlimit:10" points="23.985 25.01 25.986 23.009 33.991 31.014 31.99 33.015"/><line style="fill:none;stroke:#000;stroke-width:.72;stroke-miterlimit:10" x1="33.991" x2="31.99" y1="31.014" y2="33.015"/><line style="fill:none;stroke:#000;stroke-width:.72;stroke-miterlimit:10" x1="31.982" x2="29.981" y1="29.004" y2="31.006"/><line style="fill:none;stroke:#000;stroke-width:.72;stroke-miterlimit:10" x1="29.973" x2="27.971" y1="26.995" y2="28.996"/><line style="fill:none;stroke:#000;stroke-width:.72;stroke-miterlimit:10" x1="27.963" x2="25.962" y1="24.986" y2="26.987"/><polyline style="fill:none;stroke:#000;stroke-width:.72;stroke-miterlimit:10" points="23.985 17.005 21.984 19.006 13.979 11.001 15.98 9"/><line style="fill:none;stroke:#000;stroke-width:.72;stroke-miterlimit:10" x1="23.985" x2="21.984" y1="17.005" y2="19.006"/><line style="fill:none;stroke:#000;stroke-width:.72;stroke-miterlimit:10" x1="21.983" x2="19.982" y1="15.003" y2="17.004"/><line style="fill:none;stroke:#000;stroke-width:.72;stroke-miterlimit:10" x1="19.981" x2="17.98" y1="13.001" y2="15.002"/><line style="fill:none;stroke:#000;stroke-width:.72;stroke-miterlimit:10" x1="17.98" x2="15.978" y1="10.999" y2="13.001"/></g><path style="fill:none;stroke:#000;stroke-width:.72;stroke-linecap:round;stroke-linejoin:round;stroke-miterlimit:10" d="M19.813,25.25C19.588,28.137,19.093,31.815,18,34h12"/><path style="fill:none;stroke:#000;stroke-width:.72;stroke-miterlimit:10" d="M20.353,17.355C20.126,17.857,20,18.414,20,19 v2h8"/><path style="fill:none;stroke:#000;stroke-width:.72;stroke-miterlimit:10" d="M27.647,17.354C27.019,15.966,25.622,15,24,15 c-0.587,0-1.144,0.126-1.646,0.353"/><path style="fill:none;stroke:#000;stroke-width:.72;stroke-linecap:round;stroke-linejoin:round;stroke-miterlimit:10" d="M28.742,29.744C29.032,31.351,29.437,32.874,30,34"/><path style="fill:none;stroke:#000;stroke-width:.72;stroke-linejoin:round;stroke-miterlimit:10" d="M28,21 c0,0,0,1.852,0.187,4.25"/></g></g></svg>