<svg xmlns="http://www.w3.org/2000/svg" xmlns:xlink="http://www.w3.org/1999/xlink" x="0" y="0" version="1.1" viewBox="0 0 48 48" xml:space="preserve" style="enable-background:new 0 0 48 48"><g id="amsterdam_farm"><rect style="fill:#fff" width="48" height="48"/><g id="amsterdam_farm_1_"><line style="fill:none;stroke:#000;stroke-width:.72;stroke-linecap:round;stroke-linejoin:round;stroke-miterlimit:10" x1="28" x2="28" y1="34" y2="39"/><line style="fill:none;stroke:#000;stroke-width:.72;stroke-linecap:round;stroke-linejoin:round;stroke-miterlimit:10" x1="37" x2="37" y1="34" y2="39"/><line style="fill:none;stroke:#000;stroke-width:.72;stroke-linecap:round;stroke-linejoin:round;stroke-miterlimit:10" x1="16" x2="16" y1="34" y2="39"/><line style="fill:none;stroke:#000;stroke-width:.72;stroke-linecap:round;stroke-linejoin:round;stroke-miterlimit:10" x1="23" x2="23" y1="37" y2="39"/><line style="fill:none;stroke:#000;stroke-width:.72;stroke-linecap:round;stroke-linejoin:round;stroke-miterlimit:10" x1="13" x2="13" y1="37" y2="39"/><line style="fill:none;stroke:#000;stroke-width:.72;stroke-linecap:round;stroke-linejoin:round;stroke-miterlimit:10" x1="10" x2="10" y1="37" y2="39"/><line style="fill:none;stroke:#000;stroke-width:.72;stroke-linejoin:round;stroke-miterlimit:10" x1="20" x2="20" y1="36" y2="38"/><line style="fill:none;stroke:#000;stroke-width:.72;stroke-linejoin:round;stroke-miterlimit:10" x1="20" x2="20" y1="31" y2="33"/><line style="fill:none;stroke:#000;stroke-width:.72;stroke-linejoin:round;stroke-miterlimit:10" x1="20" x2="20" y1="26" y2="28"/><line style="fill:none;stroke:#000;stroke-width:.72;stroke-linejoin:round;stroke-miterlimit:10" x1="24" x2="24" y1="31" y2="33"/><line style="fill:none;stroke:#000;stroke-width:.72;stroke-linecap:round;stroke-linejoin:round;stroke-miterlimit:10" x1="25" x2="25" y1="37" y2="39"/><line style="fill:none;stroke:#000;stroke-width:.72;stroke-linecap:round;stroke-linejoin:round;stroke-miterlimit:10" x1="33" x2="33" y1="37" y2="39"/><line style="fill:none;stroke:#000;stroke-width:.72;stroke-linecap:round;stroke-linejoin:round;stroke-miterlimit:10" x1="35" x2="35" y1="37" y2="39"/><line style="fill:none;stroke:#000;stroke-width:.72;stroke-linejoin:round;stroke-miterlimit:10" x1="9" x2="39" y1="39" y2="39"/><line style="fill:none;stroke:#000;stroke-width:.72;stroke-linejoin:round;stroke-miterlimit:10" x1="9" x2="16" y1="37" y2="37"/><line style="fill:none;stroke:#000;stroke-width:.72;stroke-linecap:round;stroke-linejoin:round;stroke-miterlimit:10" x1="16" x2="37" y1="34" y2="34"/><path style="fill:none;stroke:#000;stroke-width:.72;stroke-linecap:round;stroke-linejoin:round;stroke-miterlimit:10" d="M23,37c0-0.552,0.448-1,1-1s1,0.448,1,1"/><path style="fill:none;stroke:#000;stroke-width:.72;stroke-linecap:round;stroke-linejoin:round;stroke-miterlimit:10" d="M33,37c0-0.552,0.448-1,1-1s1,0.448,1,1"/><polyline style="fill:none;stroke:#000;stroke-width:.72;stroke-linejoin:round;stroke-miterlimit:10" points="37 34 33 28 29.003 28"/><path style="fill:none;stroke:#000;stroke-width:.72;stroke-miterlimit:10" d="M18.353,17.355C18.126,17.857,18,18.414,18,19 v2h8"/><path style="fill:none;stroke:#000;stroke-width:.72;stroke-miterlimit:10" d="M25.647,17.354C25.019,15.966,23.622,15,22,15 c-0.587,0-1.144,0.126-1.646,0.353"/><line style="fill:none;stroke:#000;stroke-width:.72;stroke-linecap:round;stroke-linejoin:round;stroke-miterlimit:10" x1="20" x2="24" y1="19" y2="23"/><line style="fill:none;stroke:#000;stroke-width:.72;stroke-linecap:round;stroke-linejoin:round;stroke-miterlimit:10" x1="24" x2="20" y1="19" y2="23"/><path style="fill:none;stroke:#000;stroke-width:.72;stroke-linejoin:round;stroke-miterlimit:10" d="M17.813,25.25 C17.588,28.137,17.093,31.815,16,34"/><path style="fill:none;stroke:#000;stroke-width:.72;stroke-linecap:round;stroke-linejoin:round;stroke-miterlimit:10" d="M26.742,29.744C27.032,31.351,27.437,32.874,28,34"/><path style="fill:none;stroke:#000;stroke-width:.72;stroke-linejoin:round;stroke-miterlimit:10" d="M26,21 c0,0,0,1.852,0.187,4.25"/><g><rect style="fill:none;stroke:#000;stroke-width:.72;stroke-linecap:round;stroke-miterlimit:10" width="2.83" height="11.321" x="15.587" y="8.343" transform="matrix(0.7071 -0.7071 0.7071 0.7071 -4.922 16.1235)"/><rect style="fill:none;stroke:#000;stroke-width:.72;stroke-linecap:round;stroke-miterlimit:10" width="11.321" height="2.83" x="23.343" y="14.583" transform="matrix(0.7071 -0.7071 0.7071 0.7071 -2.8176 25.194)"/><rect style="fill:none;stroke:#000;stroke-width:.72;stroke-linecap:round;stroke-miterlimit:10" width="11.321" height="2.83" x="9.337" y="24.587" transform="matrix(0.7071 -0.7071 0.7071 0.7071 -13.9936 18.2202)"/><rect style="fill:none;stroke:#000;stroke-width:.72;stroke-linecap:round;stroke-miterlimit:10" width="2.83" height="11.321" x="25.587" y="22.343" transform="matrix(0.7071 -0.7071 0.7071 0.7071 -11.8925 27.2951)"/></g></g></g></svg>