<svg xmlns="http://www.w3.org/2000/svg" xmlns:xlink="http://www.w3.org/1999/xlink" x="0" y="0" version="1.1" viewBox="0 0 48 48" xml:space="preserve" style="enable-background:new 0 0 48 48"><g id="application"><g id="application_1_"><path d="M37,11.5c0,0.276-0.224,0.5-0.5,0.5S36,11.776,36,11.5s0.224-0.5,0.5-0.5S37,11.224,37,11.5z M34.5,11 c-0.276,0-0.5,0.224-0.5,0.5s0.224,0.5,0.5,0.5s0.5-0.224,0.5-0.5S34.776,11,34.5,11z M32.5,11c-0.276,0-0.5,0.224-0.5,0.5 s0.224,0.5,0.5,0.5s0.5-0.224,0.5-0.5S32.776,11,32.5,11z"/><path style="fill:none;stroke:#000;stroke-width:.72;stroke-linecap:round;stroke-linejoin:round;stroke-miterlimit:10" d="M39,38H9V10h30V38z M9,13h30 M17,13v25"/></g></g></svg>