<svg xmlns="http://www.w3.org/2000/svg" xmlns:xlink="http://www.w3.org/1999/xlink" x="0" y="0" version="1.1" viewBox="0 0 48 48" xml:space="preserve" style="enable-background:new 0 0 48 48"><g id="berlin_brandenburg"><rect style="fill:#fff" width="48" height="48"/><g id="berlin_brandenburg_1_"><line style="fill:none;stroke:#000;stroke-width:.72;stroke-linejoin:round;stroke-miterlimit:10" x1="9" x2="39" y1="36" y2="36"/><line style="fill:none;stroke:#000;stroke-width:.72;stroke-linejoin:round;stroke-miterlimit:10" x1="9" x2="39" y1="18" y2="18"/><line style="fill:none;stroke:#000;stroke-width:.72;stroke-linejoin:round;stroke-miterlimit:10" x1="20" x2="28" y1="16" y2="16"/><line style="fill:none;stroke:#000;stroke-width:.72;stroke-linejoin:round;stroke-miterlimit:10" x1="11" x2="37" y1="14" y2="14"/><line style="fill:none;stroke:#000;stroke-width:.72;stroke-linejoin:round;stroke-miterlimit:10" x1="9" x2="39" y1="20" y2="20"/><line style="fill:none;stroke:#000;stroke-width:.72;stroke-linecap:round;stroke-linejoin:round;stroke-miterlimit:10" x1="21" x2="21" y1="22" y2="36"/><line style="fill:none;stroke:#000;stroke-width:.72;stroke-linecap:round;stroke-linejoin:round;stroke-miterlimit:10" x1="19" x2="19" y1="22" y2="36"/><line style="fill:none;stroke:#000;stroke-width:.72;stroke-linecap:round;stroke-linejoin:round;stroke-miterlimit:10" x1="17" x2="17" y1="22" y2="36"/><line style="fill:none;stroke:#000;stroke-width:.72;stroke-linecap:round;stroke-linejoin:round;stroke-miterlimit:10" x1="15" x2="15" y1="22" y2="36"/><line style="fill:none;stroke:#000;stroke-width:.72;stroke-linecap:round;stroke-linejoin:round;stroke-miterlimit:10" x1="13" x2="13" y1="22" y2="36"/><line style="fill:none;stroke:#000;stroke-width:.72;stroke-linecap:round;stroke-linejoin:round;stroke-miterlimit:10" x1="11" x2="11" y1="22" y2="36"/><line style="fill:none;stroke:#000;stroke-width:.72;stroke-linecap:round;stroke-linejoin:round;stroke-miterlimit:10" x1="37" x2="37" y1="22" y2="36"/><line style="fill:none;stroke:#000;stroke-width:.72;stroke-linecap:round;stroke-linejoin:round;stroke-miterlimit:10" x1="13" x2="13" y1="14" y2="18"/><line style="fill:none;stroke:#000;stroke-width:.72;stroke-linecap:round;stroke-linejoin:round;stroke-miterlimit:10" x1="35" x2="35" y1="14" y2="18"/><line style="fill:none;stroke:#000;stroke-width:.72;stroke-linecap:round;stroke-linejoin:round;stroke-miterlimit:10" x1="35" x2="35" y1="22" y2="36"/><line style="fill:none;stroke:#000;stroke-width:.72;stroke-linecap:round;stroke-linejoin:round;stroke-miterlimit:10" x1="33" x2="33" y1="22" y2="36"/><line style="fill:none;stroke:#000;stroke-width:.72;stroke-linecap:round;stroke-linejoin:round;stroke-miterlimit:10" x1="31" x2="31" y1="22" y2="36"/><line style="fill:none;stroke:#000;stroke-width:.72;stroke-linecap:round;stroke-linejoin:round;stroke-miterlimit:10" x1="29" x2="29" y1="22" y2="36"/><line style="fill:none;stroke:#000;stroke-width:.72;stroke-linecap:round;stroke-linejoin:round;stroke-miterlimit:10" x1="27" x2="27" y1="22" y2="36"/><line style="fill:none;stroke:#000;stroke-width:.72;stroke-linejoin:round;stroke-miterlimit:10" x1="9" x2="39" y1="22" y2="22"/><path style="fill:none;stroke:#000;stroke-width:.72;stroke-linejoin:round;stroke-miterlimit:10" d="M20,10 c2.209,0,4,1.791,4,4"/><path style="fill:none;stroke:#000;stroke-width:.72;stroke-linejoin:round;stroke-miterlimit:10" d="M28,10 c-2.209,0-4,1.791-4,4"/><path style="fill:none;stroke:#000;stroke-width:.72;stroke-linejoin:round;stroke-miterlimit:10" d="M28,12 c-1.105,0-2,0.895-2,2"/><path style="fill:none;stroke:#000;stroke-width:.72;stroke-linejoin:round;stroke-miterlimit:10" d="M20,12 c1.105,0,2,0.895,2,2"/></g></g></svg>