<svg xmlns="http://www.w3.org/2000/svg" xmlns:xlink="http://www.w3.org/1999/xlink" x="0" y="0" version="1.1" viewBox="0 0 48 48" xml:space="preserve" style="enable-background:new 0 0 48 48"><g id="building"><path id="building_2_" d="M9,9 h30 M27,39v-8h-6v8 M11,11v28 M37,11v28 M9,39h30 M14,13v2 M14,19v2 M14,25v2 M19,13v2 M19,19v2 M19,25v2 M24,13v2 M24,19v2 M24,25 v2 M29,13v2 M29,19v2 M29,25v2 M34,13v2 M34,19v2 M34,25v2" style="fill:none;stroke:#000;stroke-width:.72;stroke-linejoin:round;stroke-miterlimit:10"/></g></svg>