<svg xmlns="http://www.w3.org/2000/svg" xmlns:xlink="http://www.w3.org/1999/xlink" x="0" y="0" version="1.1" viewBox="0 0 48 48" xml:space="preserve" style="enable-background:new 0 0 48 48"><g id="bus"><path id="bus_1_" d="M35,35H13 c-1.105,0-2-0.895-2-2V11c0-1.105,0.895-2,2-2h22c1.105,0,2,0.895,2,2v22C37,34.105,36.105,35,35,35z M12,35v4h3v-4 M33,35v4h3v-4 M15,28c-1.105,0-2,0.895-2,2s0.895,2,2,2s2-0.895,2-2S16.105,28,15,28z M33,28c-1.105,0-2,0.895-2,2s0.895,2,2,2 c1.105,0,2-0.895,2-2S34.105,28,33,28z M19,29h10 M19,31h10 M30,21.464l-4-6.928 M31,18.732l-2-3.464 M9,19v-6 M39,19v-6 M11,12h26 M11,24h26" style="fill:none;stroke:#000;stroke-width:.72;stroke-linejoin:round;stroke-miterlimit:10"/></g></svg>