<svg xmlns="http://www.w3.org/2000/svg" xmlns:xlink="http://www.w3.org/1999/xlink" x="0" y="0" version="1.1" viewBox="0 0 48 48" xml:space="preserve" style="enable-background:new 0 0 48 48"><g id="calendar"><path id="calendar_1_" d="M38,39 H10V12h28V39z M16,15V9 M24,15V9 M32,15V9 M25,19h-2v2h2V19z M25,26h-2v2h2V26z M25,33h-2v2h2V33z M17,19h-2v2h2V19z M17,26h-2v2h2 V26z M17,33h-2v2h2V33z M33,19h-2v2h2V19z M33,26h-2v2h2V26z M33,33h-2v2h2V33z" style="fill:none;stroke:#000;stroke-width:.72;stroke-linejoin:round;stroke-miterlimit:10"/></g></svg>