<svg xmlns="http://www.w3.org/2000/svg" xmlns:xlink="http://www.w3.org/1999/xlink" x="0" y="0" version="1.1" viewBox="0 0 48 48" xml:space="preserve" style="enable-background:new 0 0 48 48"><g id="chip_debit"><path id="chip_debit_1_" d="M36,38H12c-1.105,0-2-0.895-2-2V12c0-1.105,0.895-2,2-2h24c1.105,0,2,0.895,2,2v24C38,37.105,37.105,38,36,38z M29,19H19v10h10V19z M38,15h-5l-4,4 M29,24h9 M24,19v-9 M24,38v-9 M19,19l-4-4h-5 M10,24h9 M10,33h5l4-4 M29,29l4,4h5" style="fill:none;stroke:#000;stroke-width:.8509;stroke-linejoin:round;stroke-miterlimit:10"/></g></svg>