<svg xmlns="http://www.w3.org/2000/svg" xmlns:xlink="http://www.w3.org/1999/xlink" x="0" y="0" version="1.1" viewBox="0 0 48 48" xml:space="preserve" style="enable-background:new 0 0 48 48"><g id="cloud_tutorials"><path id="cloud_tutorials_1_" d="M25.961,28.08l-2.121-2.121l-1.414,1.414l-2.477-7.423l7.426,2.473l-1.414,1.414l2.121,2.121L25.961,28.08z M12,14.992v13 M24,9 C15.716,9,9,15.716,9,24s6.716,15,15,15s15-6.716,15-15S32.284,9,24,9z M21.457,36.388l-11.258-6.5 M33.457,32.396l-11.258,6.5 M36,20.008v13 M26.543,11.612l11.258,6.5 M25.801,9.104l-11.258,6.5 M24,9C15.716,9,9,15.716,9,24s6.716,15,15,15s15-6.716,15-15 S32.284,9,24,9z" style="fill:none;stroke:#000;stroke-width:.72;stroke-linejoin:round;stroke-miterlimit:10"/></g></svg>