<svg xmlns="http://www.w3.org/2000/svg" xmlns:xlink="http://www.w3.org/1999/xlink" x="0" y="0" version="1.1" viewBox="0 0 48 48" xml:space="preserve" style="enable-background:new 0 0 48 48"><g id="cloud_analytics"><path id="cloud_analytics_1_" d="M26,28v-5 M30,28v-8 M22,28v-8 M18,28v-3 M12,14.992v13 M24,9C15.716,9,9,15.716,9,24s6.716,15,15,15s15-6.716,15-15S32.284,9,24,9 z M10.199,29.888l11.258,6.5 M22.199,38.896l11.258-6.5 M36,20.008v13 M37.801,18.112l-11.258-6.5 M14.543,15.604l11.258-6.5 M24,9 C15.716,9,9,15.716,9,24s6.716,15,15,15s15-6.716,15-15S32.284,9,24,9z" style="fill:none;stroke:#000;stroke-width:.72;stroke-linejoin:round;stroke-miterlimit:10"/></g></svg>