<svg xmlns="http://www.w3.org/2000/svg" xmlns:xlink="http://www.w3.org/1999/xlink" x="0" y="0" version="1.1" viewBox="0 0 48 48" xml:space="preserve" style="enable-background:new 0 0 48 48"><g id="construct"><path id="construct_1_" d="M38,14h-4v-4h4V14z M38,16h-4v4h4V16z M32,10h-4v4h4V10z M32,16h-4v4h4V16z M26,16h-4v4h4V16z M14,16h-4v4h4V16z M26,22h-4v4h4V22z M26,34h-4v4h4V34z M14,34h-4v4h4V34z M20,22h-4v4h4V22z M20,10h-4v4h4V10z M20,28h-4v4h4V28z M38,22h-4v4h4V22z M38,28h-4v4h4V28z M38,34h-4v4h4V34z M32,28h-4v4h4V28z M32,34h-4v4h4V34z" style="fill:none;stroke:#000;stroke-width:.72;stroke-linejoin:round;stroke-miterlimit:10"/></g></svg>