<svg xmlns="http://www.w3.org/2000/svg" xmlns:xlink="http://www.w3.org/1999/xlink" x="0" y="0" version="1.1" viewBox="0 0 48 48" xml:space="preserve" style="enable-background:new 0 0 48 48"><g id="delete"><path id="delete_1_" d="M29.811,24l7.99,7.99c1.598,1.598,1.598,4.213,0,5.811l0,0c-1.598,1.598-4.213,1.598-5.811,0L24,29.811l-7.99,7.99 c-1.598,1.598-4.213,1.598-5.811,0l0,0c-1.598-1.598-1.598-4.213,0-5.811l7.99-7.99l-0.005-0.005l-7.985-7.985 c-1.598-1.598-1.598-4.213,0-5.811l0,0c1.598-1.598,4.213-1.598,5.811,0l7.99,7.99l7.99-7.99c1.598-1.598,4.213-1.598,5.811,0l0,0 c1.598,1.598,1.598,4.213,0,5.811L29.811,24L29.811,24z" style="fill:none;stroke:#000;stroke-width:.72;stroke-linecap:round;stroke-linejoin:round;stroke-miterlimit:10"/></g></svg>