<svg xmlns="http://www.w3.org/2000/svg" xmlns:xlink="http://www.w3.org/1999/xlink" x="0" y="0" version="1.1" viewBox="0 0 48 48" xml:space="preserve" style="enable-background:new 0 0 48 48"><g id="delivery_truck"><path id="delivery_truck_1_" d="M12,33h-1c-1.105,0-2-0.895-2-2v-7h12 M37,15H23 M37,18H25 M37,21H27 M37,24h-8 M37,33h2V12H21v21h10 M18,17v7 M15,30 c-1.657,0-3,1.343-3,3c0,1.657,1.343,3,3,3s3-1.343,3-3C18,31.343,16.657,30,15,30z M34,30c-1.657,0-3,1.343-3,3 c0,1.657,1.343,3,3,3s3-1.343,3-3C37,31.343,35.657,30,34,30z M9,24l4.041-7H21v16h-3 M17,26h2" style="fill:none;stroke:#000;stroke-width:.72;stroke-linejoin:round;stroke-miterlimit:10"/></g></svg>