<svg xmlns="http://www.w3.org/2000/svg" xmlns:xlink="http://www.w3.org/1999/xlink" x="0" y="0" version="1.1" viewBox="0 0 48 48" xml:space="preserve" style="enable-background:new 0 0 48 48"><g id="dialogue"><g id="dialogue_1_"><path style="fill:none;stroke:#000;stroke-width:.72;stroke-linejoin:round;stroke-miterlimit:10" d="M24,31H13 c-2.2,0-4-1.8-4-4V13c0-2.2,1.8-4,4-4h22c2.2,0,4,1.8,4,4v14c0,2.2-1.8,4-4,4h-7l-4,8"/><path d="M26,20c0,1.105-0.895,2-2,2s-2-0.895-2-2s0.895-2,2-2S26,18.895,26,20z M32,18c-1.105,0-2,0.895-2,2s0.895,2,2,2 c1.105,0,2-0.895,2-2S33.105,18,32,18z M16,18c-1.105,0-2,0.895-2,2s0.895,2,2,2s2-0.895,2-2S17.105,18,16,18z"/></g></g></svg>