<svg xmlns="http://www.w3.org/2000/svg" xmlns:xlink="http://www.w3.org/1999/xlink" x="0" y="0" version="1.1" viewBox="0 0 48 48" xml:space="preserve" style="enable-background:new 0 0 48 48"><g id="dna"><path id="dna_1_" d="M16.997,10.055c0,6.94,14.005,7.078,14.005,14.019c0,3.019-2.207,4.587-5.252,6.122 M25.751,16.163 c2.83-1.512,5.252-3.222,5.252-6.108 M22.249,31.939c-2.83,1.512-5.252,3.222-5.252,6.108 M22.249,17.933 c-3.045,1.535-5.252,3.103-5.252,6.122c0,6.94,14.005,7.078,14.005,14.019 M17,24h14 M18.15,21h11.7 M17.413,12h13.173 M17.5,36h13 M18,27h12 M16.997,10.055V9 M31.003,10.055V9 M16.997,38.047V39 M31.003,38.074V39" style="fill:none;stroke:#000;stroke-width:.72;stroke-linecap:round;stroke-linejoin:round;stroke-miterlimit:10"/></g></svg>