<svg xmlns="http://www.w3.org/2000/svg" xmlns:xlink="http://www.w3.org/1999/xlink" x="0" y="0" version="1.1" viewBox="0 0 48 48" xml:space="preserve" style="enable-background:new 0 0 48 48"><g id="doctor"><path id="doctor_1_" d="M26.823,14h4.787 M16.389,14h4.78 M39,39c0-6.871-5.23-12.624-11.637-14.143c2.899-1.291,4.924-4.192,4.924-7.57 C32.287,12.71,28.577,9,24,9s-8.288,3.71-8.288,8.287c0,3.379,2.024,6.28,4.924,7.57C14.229,26.376,9,32.129,9,39 M25,35h8 M29,30.997v8 M24,12c-1.657,0-3,1.343-3,3s1.343,3,3,3s3-1.343,3-3S25.657,12,24,12z" style="fill:none;stroke:#000;stroke-width:.72;stroke-linejoin:round;stroke-miterlimit:10"/></g></svg>