<svg xmlns="http://www.w3.org/2000/svg" xmlns:xlink="http://www.w3.org/1999/xlink" x="0" y="0" version="1.1" viewBox="0 0 48 48" xml:space="preserve" style="enable-background:new 0 0 48 48"><g id="fire_extinguisher"><path id="fire_extinguisher_1_" d="M22,17.416v-4.051C22,13.164,22.164,13,22.365,13h3.27C25.836,13,26,13.164,26,13.365v4.051 M25,13V9.365 C25,9.164,24.836,9,24.635,9h-1.27C23.164,9,23,9.164,23,9.365V13 M29,22c0-2.761-2.239-5-5-5h0c-2.761,0-5,2.239-5,5v17h10V22z M23,11h-4l-6,6 M29,10v2l6,1V9L29,10z M29,11h-4 M19,32h10 M19,24h10" style="fill:none;stroke:#000;stroke-width:.72;stroke-linejoin:round;stroke-miterlimit:10"/></g></svg>