<svg xmlns="http://www.w3.org/2000/svg" xmlns:xlink="http://www.w3.org/1999/xlink" x="0" y="0" version="1.1" viewBox="0 0 48 48" xml:space="preserve" style="enable-background:new 0 0 48 48"><g id="flow_chart_detail"><path id="flow_chart_detail_1_" d="M39,19.999h-8 M39,22.999h-8.414 M39,13.999h-9.779 M39,16.999h-8.414 M20,9C13.925,9,9,13.925,9,20s4.925,11,11,11s11-4.925,11-11 S26.075,9,20,9z M38.984,39L27.769,27.784 M14,20h5 M26.32,11.001H24v3v3h6.58 M9.42,23.001H14v-3v-3H9.42 M30.58,23.001H24v3v3 h2.32 M24,14h-5v12h5" style="fill:none;stroke:#000;stroke-width:.72;stroke-linejoin:round;stroke-miterlimit:10"/></g></svg>