<svg xmlns="http://www.w3.org/2000/svg" xmlns:xlink="http://www.w3.org/1999/xlink" x="0" y="0" version="1.1" viewBox="0 0 48 48" xml:space="preserve" style="enable-background:new 0 0 48 48"><g id="fog"><path id="fog_1_" d="M10,18h4 M34,18h4 M26,18h4 M18,18h4 M14,22h4 M30,22h4 M22,22h4 M14,14h4 M30,14h4 M22,14h4 M10,26h4 M34,26h4 M26,26h4 M18,26h4 M10,34h4 M34,34h4 M26,34h4 M18,34h4 M14,30h4 M30,30h4 M22,30h4" style="fill:none;stroke:#000;stroke-width:.72;stroke-linejoin:round;stroke-miterlimit:10"/></g></svg>