<svg xmlns="http://www.w3.org/2000/svg" xmlns:xlink="http://www.w3.org/1999/xlink" x="0" y="0" version="1.1" viewBox="0 0 48 48" xml:space="preserve" style="enable-background:new 0 0 48 48"><g id="global_finance_euro"><path id="global_finance_euro_1_" d="M27.154,25.368h3.691 M27.154,22L29,24.233L30.846,22 M29,27v-2.767 M24,39c8.284,0,15-6.716,15-15c0-8.284-6.716-15-15-15 C15.716,9,9,15.716,9,24C9,32.284,15.716,39,24,39z M24,9v30 M24,24L9,24 M39,24l-5,0 M16,16l-4.5,0 M16,32l-4.5,0 M14.358,24 c0,8.284,4.317,15,9.642,15s9.642-6.716,9.642-15S29.325,9,24,9S14.358,15.716,14.358,24z M36.5,16L24,16 M36.5,32L24,32 M20,14.5 V16 M20,20v1.5 M22,16h-3c-0.552,0-1,0.447-1,1c0,0.552,0.447,1,1,1h2c0.552,0,1,0.448,1,1c0,0.553-0.448,1-1,1h-3 M18,29.5h3 M22,27h-2c-1.105,0-2,0.895-2,2v1c0,1.105,0.895,2,2,2h2" style="fill:none;stroke:#000;stroke-width:.72;stroke-linejoin:round;stroke-miterlimit:10"/></g></svg>