<svg xmlns="http://www.w3.org/2000/svg" xmlns:xlink="http://www.w3.org/1999/xlink" x="0" y="0" version="1.1" viewBox="0 0 48 48" xml:space="preserve" style="enable-background:new 0 0 48 48"><g id="hard_ice_cream"><path id="hard_ice_cream_1_" d="M29,24l-5,15l-5-15 M19.249,18.215c-1.9,0-2.851,1.446-2.851,2.893c0,1.928,1.425,2.893,3.326,2.893h9.027 c1.425,0,2.851-1.143,2.851-2.893c0-1.446-0.95-2.893-2.851-2.893H24.95 M29.891,18.368c0.413-0.857,0.644-1.818,0.644-2.833 C30.535,11.926,27.609,9,24,9s-6.535,2.926-6.535,6.535c0,1.026,0.237,1.998,0.658,2.862" style="fill:none;stroke:#000;stroke-width:.72;stroke-linecap:round;stroke-linejoin:round;stroke-miterlimit:10"/></g></svg>