<svg xmlns="http://www.w3.org/2000/svg" xmlns:xlink="http://www.w3.org/1999/xlink" x="0" y="0" version="1.1" viewBox="0 0 48 48" xml:space="preserve" style="enable-background:new 0 0 48 48"><g id="headphones"><path id="headphones_1_" d="M9,33v-9c0-8.284,6.716-15,15-15s15,6.716,15,15v9 M15,37v-8c0-1.105-0.895-2-2-2h0c-1.105,0-2,0.895-2,2v8c0,1.105,0.895,2,2,2h0 C14.105,39,15,38.105,15,37z M37,37v-8c0-1.105-0.895-2-2-2h0c-1.105,0-2,0.895-2,2v8c0,1.105,0.895,2,2,2h0 C36.105,39,37,38.105,37,37z" style="fill:none;stroke:#000;stroke-width:.72;stroke-linejoin:round;stroke-miterlimit:10"/></g></svg>