<svg xmlns="http://www.w3.org/2000/svg" xmlns:xlink="http://www.w3.org/1999/xlink" x="0" y="0" version="1.1" viewBox="0 0 48 48" xml:space="preserve" style="enable-background:new 0 0 48 48"><g id="heart"><path id="heart_1_" d="M11.263,24.118c-1.484-1.484-2.231-3.429-2.231-5.374c0-1.954,0.741-3.909,2.231-5.4c1.487-1.487,3.435-2.231,5.384-2.231 c1.951-0.001,3.902,0.743,5.39,2.231l1.995,1.995l1.995-1.995c1.489-1.489,3.442-2.233,5.395-2.231 c1.947,0.002,3.894,0.746,5.38,2.231c1.488,1.488,2.231,3.437,2.231,5.387c0,1.95-0.744,3.899-2.231,5.387L24.032,36.887 L11.263,24.118z" style="fill:none;stroke:#000;stroke-width:.7204;stroke-linecap:round;stroke-linejoin:round;stroke-miterlimit:10"/></g></svg>