<svg xmlns="http://www.w3.org/2000/svg" xmlns:xlink="http://www.w3.org/1999/xlink" x="0" y="0" version="1.1" viewBox="0 0 48 48" xml:space="preserve" style="enable-background:new 0 0 48 48"><g id="heat_map"><path id="analytics-big-data-data-07_1_" d="M38,38h-4v-4h4V38z M12,26h-2v2h2V26z M38,13h-2v2h2V13z M34,22h-2v2h2V22z M29,9h-2v2h2V9z M24,27h-2v2h2V27z M14,16h-2v2h2V16z M22,20h-2v2h2V20z M20,11h-4v4h4V11z M32,29h-4v4h4V29z M27,24h-3v3h3V24z M23,36h-3v3h3V36z M39,26h-3v3h3V26z M12,18H9v3h3V18z M36,15h-3v3h3V15z M15,21h-3v3h3V21z M28,14h-6v6h6V14z M18,28h-6v6h6V28z" style="fill:none;stroke:#000;stroke-width:.72;stroke-linejoin:round;stroke-miterlimit:10"/></g></svg>