<svg xmlns="http://www.w3.org/2000/svg" xmlns:xlink="http://www.w3.org/1999/xlink" x="0" y="0" version="1.1" viewBox="0 0 48 48" xml:space="preserve" style="enable-background:new 0 0 48 48"><g id="hospital"><path id="hospital_1_" d="M33,12.5h4 M35,10.5v4 M24,32h-5.5v7H24V32z M39,9h-8l0,7H9v23h30V9z M13,21v-2 M18.5,21v-2 M24,21v-2 M29.5,21v-2 M35,21v-2 M13,25v-2 M18.5,25v-2 M24,25v-2 M29.5,25v-2 M35,25v-2 M13,29v-2 M18.5,29v-2 M24,29v-2 M29.5,29v-2 M35,29v-2 M13,33v-2 M29.5,33v-2 M35,33v-2" style="fill:none;stroke:#000;stroke-width:.72;stroke-linejoin:round;stroke-miterlimit:10"/></g></svg>