<svg xmlns="http://www.w3.org/2000/svg" xmlns:xlink="http://www.w3.org/1999/xlink" x="0" y="0" version="1.1" viewBox="0 0 48 48" xml:space="preserve" style="enable-background:new 0 0 48 48"><g id="humid"><path id="humid_1_" d="M8.9,16 c0.739,0,1.351-0.54,1.875-1c0.524-0.46,1.136-1,1.875-1s1.351,0.54,1.875,1c0.524,0.46,1.136,1,1.875,1 c0.739,0,1.351-0.54,1.875-1c0.524-0.46,1.136-1,1.875-1c0.739,0,1.351,0.54,1.875,1c0.524,0.46,1.136,1,1.875,1 c0.739,0,1.351-0.54,1.875-1c0.524-0.46,1.136-1,1.875-1c0.739,0,1.351,0.54,1.875,1c0.524,0.46,1.136,1,1.875,1 s1.351-0.54,1.875-1s1.136-1,1.875-1c0.739,0,1.326,0.54,1.85,1s1.164,1,1.903,1 M38.903,22c-0.739,0-1.379-0.54-1.903-1 s-1.111-1-1.85-1c-0.739,0-1.351,0.54-1.875,1s-1.136,1-1.875,1s-1.351-0.54-1.875-1c-0.524-0.46-1.136-1-1.875-1 c-0.739,0-1.351,0.54-1.875,1c-0.524,0.46-1.136,1-1.875,1c-0.739,0-1.351-0.54-1.875-1c-0.524-0.46-1.136-1-1.875-1 c-0.739,0-1.351,0.54-1.875,1c-0.524,0.46-1.136,1-1.875,1c-0.739,0-1.351-0.54-1.875-1c-0.524-0.46-1.136-1-1.875-1 s-1.351,0.54-1.875,1c-0.524,0.46-1.136,1-1.875,1 M38.903,28c-0.739,0-1.379-0.54-1.903-1s-1.111-1-1.85-1 c-0.739,0-1.351,0.54-1.875,1s-1.136,1-1.875,1s-1.351-0.54-1.875-1c-0.524-0.46-1.136-1-1.875-1c-0.739,0-1.351,0.54-1.875,1 c-0.524,0.46-1.136,1-1.875,1c-0.739,0-1.351-0.54-1.875-1c-0.524-0.46-1.136-1-1.875-1c-0.739,0-1.351,0.54-1.875,1 c-0.524,0.46-1.136,1-1.875,1c-0.739,0-1.351-0.54-1.875-1c-0.524-0.46-1.136-1-1.875-1s-1.351,0.54-1.875,1 c-0.524,0.46-1.136,1-1.875,1 M38.903,34c-0.739,0-1.379-0.54-1.903-1s-1.111-1-1.85-1c-0.739,0-1.351,0.54-1.875,1 s-1.136,1-1.875,1s-1.351-0.54-1.875-1c-0.524-0.46-1.136-1-1.875-1c-0.739,0-1.351,0.54-1.875,1c-0.524,0.46-1.136,1-1.875,1 c-0.739,0-1.351-0.54-1.875-1c-0.524-0.46-1.136-1-1.875-1c-0.739,0-1.351,0.54-1.875,1c-0.524,0.46-1.136,1-1.875,1 c-0.739,0-1.351-0.54-1.875-1c-0.524-0.46-1.136-1-1.875-1s-1.351,0.54-1.875,1c-0.524,0.46-1.136,1-1.875,1" style="fill:none;stroke:#000;stroke-width:.72;stroke-linejoin:round;stroke-miterlimit:10"/></g></svg>