<svg xmlns="http://www.w3.org/2000/svg" xmlns:xlink="http://www.w3.org/1999/xlink" x="0" y="0" version="1.1" viewBox="0 0 48 48" xml:space="preserve" style="enable-background:new 0 0 48 48"><g id="language_04"><g id="language_04_1_"><path style="fill:none;stroke:#000;stroke-width:.72;stroke-linejoin:bevel;stroke-miterlimit:10" d="M34.5,12.5 c0,0-2.533,0-3.033,0c-1,0-2-0.155-2-1.5c0-1,0.622-2,1.622-2s1.878,0.5,1.878,3c0,2.698-1.467,3-2.967,3l0,0c-1.5,0-3-0.5-3-2.5 V11"/><g><path id="language_3_" d="M34,39c0-4.625-3.145-8.505-7.409-9.648c1.731-0.926,2.91-2.751,2.91-4.852C29.501,21.463,27.038,19,24,19 s-5.501,2.463-5.501,5.501c0,2.101,1.179,3.925,2.91,4.852C17.156,30.426,14,34.375,14,39 M15,10h6 M18,8.5V10 M15,15 c4.709,0,4.498-4,4.498-5 M16.534,12c0.348,1.219,1.826,3,4.466,3" style="fill:none;stroke:#000;stroke-width:.72;stroke-linejoin:round;stroke-miterlimit:10"/></g><polyline style="fill:none;stroke:#000;stroke-width:.72;stroke-linejoin:bevel;stroke-miterlimit:10" points="9 27 12.5 19.5 16 27"/><line style="fill:none;stroke:#000;stroke-width:.72;stroke-linejoin:bevel;stroke-miterlimit:10" x1="10.5" x2="14.5" y1="24" y2="24"/><rect style="fill:#fff" width="8.5" height="2" x="8.5" y="26"/><path style="fill:none;stroke:#000;stroke-width:.72;stroke-linecap:square;stroke-linejoin:round;stroke-miterlimit:10" d="M37.86,26v-6H34.5v2c0,2-0.5,4-1.5,4"/><polyline style="fill:none;stroke:#000;stroke-width:.72;stroke-miterlimit:10" points="33 27.5 33 26 38.5 26 38.5 27.5"/></g></g></svg>