<svg xmlns="http://www.w3.org/2000/svg" xmlns:xlink="http://www.w3.org/1999/xlink" x="0" y="0" version="1.1" viewBox="0 0 48 48" xml:space="preserve" style="enable-background:new 0 0 48 48"><g id="list_bullet"><path id="list_bullet_1_" d="M15,12c0,1.657-1.343,3-3,3s-3-1.343-3-3s1.343-3,3-3S15,10.343,15,12z M12,33c-1.657,0-3,1.343-3,3s1.343,3,3,3s3-1.343,3-3 S13.657,33,12,33z M12,21c-1.657,0-3,1.343-3,3s1.343,3,3,3s3-1.343,3-3S13.657,21,12,21z M19,12h20 M19,24h20 M19,36h20" style="fill:none;stroke:#000;stroke-width:.72;stroke-linejoin:round;stroke-miterlimit:10"/></g></svg>