<svg xmlns="http://www.w3.org/2000/svg" xmlns:xlink="http://www.w3.org/1999/xlink" id="Layer_1" x="0" y="0" version="1.1" viewBox="0 0 48 48" xml:space="preserve" style="enable-background:new 0 0 48 48"><g id="machine_learning_03"><g id="machine_learning_3_1_"><circle style="fill:none;stroke:#000;stroke-width:.72;stroke-linejoin:round;stroke-miterlimit:10" cx="25" cy="31" r="1"/><line style="fill:none;stroke:#000;stroke-width:.72;stroke-linejoin:round;stroke-miterlimit:10" x1="31" x2="31" y1="30" y2="36"/><line style="fill:none;stroke:#000;stroke-width:.72;stroke-linejoin:round;stroke-miterlimit:10" x1="25" x2="25" y1="32" y2="36"/><line style="fill:none;stroke:#000;stroke-width:.72;stroke-linejoin:round;stroke-miterlimit:10" x1="32.123" x2="17.88" y1="14.603" y2="24.395"/><line style="fill:none;stroke:#000;stroke-width:.72;stroke-linejoin:round;stroke-miterlimit:10" x1="12.194" x2="19.698" y1="17.881" y2="17.13"/><polyline style="fill:none;stroke:#000;stroke-width:.72;stroke-linejoin:round;stroke-miterlimit:10" points="20.834 11.648 29 18 36.196 24.297"/><path style="fill:none;stroke:#000;stroke-width:.72;stroke-linejoin:round;stroke-miterlimit:10" d="M28,23"/><path style="fill:none;stroke:#000;stroke-width:.72;stroke-linejoin:round;stroke-miterlimit:10" d="M27,11"/><line style="fill:none;stroke:#000;stroke-width:.72;stroke-linejoin:round;stroke-miterlimit:10" x1="36" x2="28.829" y1="19.444" y2="22.631"/><line style="fill:none;stroke:#000;stroke-width:.72;stroke-linejoin:round;stroke-miterlimit:10" x1="30" x2="17.875" y1="28.714" y2="25.25"/><line style="fill:none;stroke:#000;stroke-width:.72;stroke-linejoin:round;stroke-miterlimit:10" x1="36.128" x2="31.866" y1="25.581" y2="28.423"/><line style="fill:none;stroke:#000;stroke-width:.72;stroke-linejoin:round;stroke-miterlimit:10" x1="37" x2="37" y1="20.104" y2="23.927"/><line style="fill:none;stroke:#000;stroke-width:.72;stroke-linejoin:round;stroke-miterlimit:10" x1="33.681" x2="36.299" y1="14.851" y2="18.124"/><line style="fill:none;stroke:#000;stroke-width:.72;stroke-linejoin:round;stroke-miterlimit:10" x1="27.942" x2="32.057" y1="11.471" y2="13.529"/><line style="fill:none;stroke:#000;stroke-width:.72;stroke-linejoin:round;stroke-miterlimit:10" x1="21.09" x2="25.921" y1="11" y2="11"/><line style="fill:none;stroke:#000;stroke-width:.72;stroke-linejoin:round;stroke-miterlimit:10" x1="15.941" x2="19.057" y1="13.03" y2="11.471"/><line style="fill:none;stroke:#000;stroke-width:.72;stroke-linejoin:round;stroke-miterlimit:10" x1="11.702" x2="14.395" y1="17.211" y2="14.18"/><line style="fill:none;stroke:#000;stroke-width:.72;stroke-linejoin:round;stroke-miterlimit:10" x1="11" x2="11" y1="23.082" y2="18.905"/><line style="fill:none;stroke:#000;stroke-width:.72;stroke-linejoin:round;stroke-miterlimit:10" x1="15.925" x2="12.05" y1="24.821" y2="24.175"/><circle style="fill:none;stroke:#000;stroke-width:.72;stroke-linejoin:round;stroke-miterlimit:10" cx="27" cy="11" r="1"/><circle style="fill:none;stroke:#000;stroke-width:.72;stroke-linejoin:round;stroke-miterlimit:10" cx="33" cy="14" r="1"/><circle style="fill:none;stroke:#000;stroke-width:.72;stroke-linejoin:round;stroke-miterlimit:10" cx="37" cy="19" r="1"/><circle style="fill:none;stroke:#000;stroke-width:.72;stroke-linejoin:round;stroke-miterlimit:10" cx="37" cy="25" r="1"/><circle style="fill:none;stroke:#000;stroke-width:.72;stroke-linejoin:round;stroke-miterlimit:10" cx="31" cy="29" r="1"/><circle style="fill:none;stroke:#000;stroke-width:.72;stroke-linejoin:round;stroke-miterlimit:10" cx="28" cy="23" r="1"/><circle style="fill:none;stroke:#000;stroke-width:.72;stroke-linejoin:round;stroke-miterlimit:10" cx="21" cy="17" r="1"/><circle style="fill:none;stroke:#000;stroke-width:.72;stroke-linejoin:round;stroke-miterlimit:10" cx="19" cy="29" r="1"/><circle style="fill:none;stroke:#000;stroke-width:.72;stroke-linejoin:round;stroke-miterlimit:10" cx="25" cy="37" r="1"/><circle style="fill:none;stroke:#000;stroke-width:.72;stroke-linejoin:round;stroke-miterlimit:10" cx="31" cy="37" r="1"/><circle style="fill:none;stroke:#000;stroke-width:.72;stroke-linejoin:round;stroke-miterlimit:10" cx="17" cy="25" r="1"/><circle style="fill:none;stroke:#000;stroke-width:.72;stroke-linejoin:round;stroke-miterlimit:10" cx="11" cy="24" r="1"/><circle style="fill:none;stroke:#000;stroke-width:.72;stroke-linejoin:round;stroke-miterlimit:10" cx="11" cy="18" r="1"/><circle style="fill:none;stroke:#000;stroke-width:.72;stroke-linejoin:round;stroke-miterlimit:10" cx="15" cy="13.5" r="1"/><circle style="fill:none;stroke:#000;stroke-width:.72;stroke-linejoin:round;stroke-miterlimit:10" cx="20" cy="11" r="1"/><line style="fill:none;stroke:#000;stroke-width:.72;stroke-linejoin:round;stroke-miterlimit:10" x1="29.111" x2="36" y1="23.247" y2="24.778"/><line style="fill:none;stroke:#000;stroke-width:.72;stroke-linejoin:round;stroke-miterlimit:10" x1="25.375" x2="27.667" y1="30" y2="23.887"/><line style="fill:none;stroke:#000;stroke-width:.72;stroke-linejoin:round;stroke-miterlimit:10" x1="21.286" x2="24.714" y1="18" y2="30"/><line style="fill:none;stroke:#000;stroke-width:.72;stroke-linejoin:round;stroke-miterlimit:10" x1="16.829" x2="15.193" y1="24.015" y2="14.607"/><line style="fill:none;stroke:#000;stroke-width:.72;stroke-linejoin:round;stroke-miterlimit:10" x1="18.517" x2="17.472" y1="28.035" y2="25.945"/><line style="fill:none;stroke:#000;stroke-width:.72;stroke-linejoin:round;stroke-miterlimit:10" x1="23.941" x2="19.915" y1="30.647" y2="29.305"/></g></g></svg>