<svg xmlns="http://www.w3.org/2000/svg" xmlns:xlink="http://www.w3.org/1999/xlink" x="0" y="0" version="1.1" viewBox="0 0 48 48" xml:space="preserve" style="enable-background:new 0 0 48 48"><g id="mexico_city_angel_x0D_of_independence"><rect style="fill:#fff" width="48" height="48"/><g id="mexico_city_angel_of_independence_2_"><polyline style="fill:none;stroke:#000;stroke-width:.72;stroke-miterlimit:10" points="23 18 23 16 25 16 25 18"/><polyline style="fill:none;stroke:#000;stroke-width:.72;stroke-miterlimit:10" points="20 39 20 33 28 33 28 39"/><polyline style="fill:none;stroke:#000;stroke-width:.72;stroke-miterlimit:10" points="22 19 22 18 26 18 26 19"/><line style="fill:none;stroke:#000;stroke-width:.72;stroke-miterlimit:10" x1="26" x2="22" y1="25" y2="25"/><line style="fill:none;stroke:#000;stroke-width:.72;stroke-miterlimit:10" x1="26" x2="22" y1="29" y2="29"/><line style="fill:none;stroke:#000;stroke-width:.72;stroke-miterlimit:10" x1="22" x2="22" y1="33" y2="20"/><line style="fill:none;stroke:#000;stroke-width:.72;stroke-miterlimit:10" x1="26" x2="26" y1="33" y2="20"/><rect style="fill:none;stroke:#000;stroke-width:.72;stroke-miterlimit:10" width="4" height="2" x="22" y="35"/><g><path style="fill:none;stroke:#000;stroke-width:.72;stroke-linejoin:round;stroke-miterlimit:10" d="M10,17 c-0.552,0-1,0.448-1,1s0.448,1,1,1h7c0.552,0,1-0.448,1-1s-0.448-1-1-1h-1c0-0.552-0.448-1-1-1s-1,0.448-1,1c0-1.105-0.895-2-2-2 S10,15.896,10,17z"/></g><g><path style="fill:none;stroke:#000;stroke-width:.72;stroke-linejoin:round;stroke-miterlimit:10" d="M30,29 c-0.552,0-1,0.448-1,1s0.448,1,1,1h7c0.552,0,1-0.448,1-1s-0.448-1-1-1h-1c0-0.552-0.448-1-1-1s-1,0.448-1,1c0-1.105-0.895-2-2-2 C30.895,27,30,27.895,30,29z"/></g><polygon style="fill:none;stroke:#000;stroke-width:.72;stroke-linejoin:round;stroke-miterlimit:10" points="25 14.5 24 12 23 14.5"/><line style="fill:none;stroke:#000;stroke-width:.72;stroke-miterlimit:10" x1="24" x2="24" y1="14.5" y2="16"/><polyline style="fill:none;stroke:#000;stroke-width:.72;stroke-miterlimit:10" points="21 19 21 20 27 20 27 19"/><path style="fill:none;stroke:#000;stroke-width:.72;stroke-miterlimit:10" d="M20.5,10.563c0.219,2.053,2.67,2.27,3.5,1.438 l-3-3h-3C18,9,18.219,11,20.5,10.563z"/><path id="wings" d="M18,9h3l3,3 c-0.83,0.832-3.281,0.616-3.5-1.438C18.219,11,18,9,18,9z M30,9h-3l-3,3c0.83,0.832,3.281,0.616,3.5-1.438C29.781,11,30,9,30,9z" style="fill:none;stroke:#000;stroke-width:.72;stroke-miterlimit:10"/><line style="fill:none;stroke:#000;stroke-width:.72;stroke-miterlimit:10" x1="26" x2="22" y1="22" y2="22"/></g></g></svg>