<svg xmlns="http://www.w3.org/2000/svg" xmlns:xlink="http://www.w3.org/1999/xlink" x="0" y="0" version="1.1" viewBox="0 0 48 48" xml:space="preserve" style="enable-background:new 0 0 48 48"><g id="natural_language_classifier"><path id="natural_language_classifier_1_" d="M28,26h-8v-4h8V26z M17,22H9v4h8V22z M39,22h-8v4h8V22z M27,33h-6v6h6V33z M13,9c-1.657,0-3,1.343-3,3s1.343,3,3,3s3-1.343,3-3 S14.657,9,13,9z M35,9l-3.464,6l6.928,0L35,9z M13,15v7 M35,15v7 M24,26v7" style="fill:none;stroke:#000;stroke-width:.72;stroke-linejoin:round;stroke-miterlimit:10"/></g></svg>