<svg xmlns="http://www.w3.org/2000/svg" xmlns:xlink="http://www.w3.org/1999/xlink" x="0" y="0" version="1.1" viewBox="0 0 48 48" xml:space="preserve" style="enable-background:new 0 0 48 48"><g id="networking_02"><path id="networking_02_1_" d="M14.995,24H33 M12,21c-1.657,0-3,1.343-3,3s1.343,3,3,3s3-1.343,3-3S13.657,21,12,21z M36,21c-1.657,0-3,1.343-3,3s1.343,3,3,3 s3-1.343,3-3S37.657,21,36,21z M36,9c-1.657,0-3,1.343-3,3s1.343,3,3,3s3-1.343,3-3S37.657,9,36,9z M36,33c-1.657,0-3,1.343-3,3 s1.343,3,3,3s3-1.343,3-3S37.657,33,36,33z M33,12h-9v24h9" style="fill:none;stroke:#000;stroke-width:.72;stroke-linejoin:round;stroke-miterlimit:10"/></g></svg>