<svg xmlns="http://www.w3.org/2000/svg" xmlns:xlink="http://www.w3.org/1999/xlink" x="0" y="0" version="1.1" viewBox="0 0 48 48" xml:space="preserve" style="enable-background:new 0 0 48 48"><g id="nyc_brooklyn"><rect style="fill:#fff" width="48" height="48"/><g id="nyc_brookklyn"><g><g><line style="fill:none;stroke:#000;stroke-width:.72;stroke-linejoin:round;stroke-miterlimit:10" x1="36" x2="36" y1="18" y2="22"/><line style="fill:none;stroke:#000;stroke-width:.72;stroke-linejoin:round;stroke-miterlimit:10" x1="32" x2="32" y1="18" y2="22"/><polygon style="fill:none;stroke:#000;stroke-width:.72;stroke-linejoin:round;stroke-miterlimit:10" points="37 12 37 18 31 18 31 12 34 10"/><polyline style="fill:none;stroke:#000;stroke-width:.72;stroke-miterlimit:10" points="20 32 20 9 9 9"/><line style="fill:none;stroke:#000;stroke-width:.72;stroke-linejoin:round;stroke-miterlimit:10" x1="16" x2="16" y1="24" y2="28"/><line style="fill:none;stroke:#000;stroke-width:.72;stroke-linejoin:round;stroke-miterlimit:10" x1="16" x2="16" y1="18" y2="22"/><line style="fill:none;stroke:#000;stroke-width:.72;stroke-linejoin:round;stroke-miterlimit:10" x1="16" x2="16" y1="12" y2="16"/><line style="fill:none;stroke:#000;stroke-width:.72;stroke-linejoin:round;stroke-miterlimit:10" x1="18" x2="18" y1="24" y2="28"/><line style="fill:none;stroke:#000;stroke-width:.72;stroke-linejoin:round;stroke-miterlimit:10" x1="18" x2="18" y1="18" y2="22"/><line style="fill:none;stroke:#000;stroke-width:.72;stroke-linejoin:round;stroke-miterlimit:10" x1="18" x2="18" y1="12" y2="16"/><line style="fill:none;stroke:#000;stroke-width:.72;stroke-linejoin:round;stroke-miterlimit:10" x1="14" x2="14" y1="24" y2="28"/><line style="fill:none;stroke:#000;stroke-width:.72;stroke-linejoin:round;stroke-miterlimit:10" x1="14" x2="14" y1="18" y2="22"/><line style="fill:none;stroke:#000;stroke-width:.72;stroke-linejoin:round;stroke-miterlimit:10" x1="14" x2="14" y1="12" y2="16"/><line style="fill:none;stroke:#000;stroke-width:.72;stroke-linejoin:round;stroke-miterlimit:10" x1="12" x2="12" y1="24" y2="28"/><line style="fill:none;stroke:#000;stroke-width:.72;stroke-linejoin:round;stroke-miterlimit:10" x1="12" x2="12" y1="18" y2="22"/><line style="fill:none;stroke:#000;stroke-width:.72;stroke-linejoin:round;stroke-miterlimit:10" x1="12" x2="12" y1="12" y2="16"/><line style="fill:none;stroke:#000;stroke-width:.72;stroke-linejoin:round;stroke-miterlimit:10" x1="10" x2="10" y1="24" y2="28"/><line style="fill:none;stroke:#000;stroke-width:.72;stroke-linejoin:round;stroke-miterlimit:10" x1="10" x2="10" y1="18" y2="22"/><line style="fill:none;stroke:#000;stroke-width:.72;stroke-linejoin:round;stroke-miterlimit:10" x1="10" x2="10" y1="12" y2="16"/><polyline style="fill:none;stroke:#000;stroke-width:.72;stroke-miterlimit:10" points="12 39 12 32 28 32"/><polyline style="fill:none;stroke:#000;stroke-width:.72;stroke-miterlimit:10" points="28 39 28 22 39 22"/><line style="fill:none;stroke:#000;stroke-width:.72;stroke-miterlimit:10" x1="20" x2="20" y1="36" y2="39"/></g><line style="fill:none;stroke:#000;stroke-width:.72;stroke-linejoin:round;stroke-miterlimit:10" x1="36" x2="36" y1="29" y2="32"/><line style="fill:none;stroke:#000;stroke-width:.72;stroke-linejoin:round;stroke-miterlimit:10" x1="32" x2="32" y1="29" y2="32"/><line style="fill:none;stroke:#000;stroke-width:.72;stroke-linejoin:round;stroke-miterlimit:10" x1="36" x2="36" y1="34" y2="37"/><line style="fill:none;stroke:#000;stroke-width:.72;stroke-linejoin:round;stroke-miterlimit:10" x1="32" x2="32" y1="34" y2="37"/><line style="fill:none;stroke:#000;stroke-width:.72;stroke-linejoin:round;stroke-miterlimit:10" x1="32" x2="32" y1="24" y2="27"/><line style="fill:none;stroke:#000;stroke-width:.72;stroke-linejoin:round;stroke-miterlimit:10" x1="36" x2="36" y1="24" y2="27"/><polyline style="fill:none;stroke:#000;stroke-width:.72;stroke-miterlimit:10" points="16 39 16 36 24 36 24 39"/></g><polyline style="fill:none;stroke:#000;stroke-width:.72;stroke-miterlimit:10" points="24 32 24 16 20 16"/></g></g></svg>