<svg xmlns="http://www.w3.org/2000/svg" xmlns:xlink="http://www.w3.org/1999/xlink" x="0" y="0" version="1.1" viewBox="0 0 48 48" xml:space="preserve" style="enable-background:new 0 0 48 48"><g id="nyc_manhattan"><rect style="fill:#fff" width="48" height="48"/><path id="nyc_manhattan_1_" d="M9,13h15v16 M30,29H16v9.998 M39,21.998h-9v17 M38,11.998l-3-2l-3,2v6h6V11.998z M33,17.998v4 M37,17.998v4 M12,17v-2 M16,17v-2 M20,17v-2 M12,22v-2 M16,22v-2 M20,22v-2 M12,27.002v-2 M16,27.002v-2 M20,27.002v-2 M20,33v-2 M24,33v-2 M33,28.002v-2 M37,28.002v-2 M33,33v-2 M37,33v-2 M20,38v-2 M24,38v-2 M33,38v-2 M37,38v-2" style="fill:none;stroke:#000;stroke-width:.72;stroke-linejoin:round;stroke-miterlimit:10"/></g></svg>