<svg xmlns="http://www.w3.org/2000/svg" xmlns:xlink="http://www.w3.org/1999/xlink" x="0" y="0" version="1.1" viewBox="0 0 48 48" xml:space="preserve" style="enable-background:new 0 0 48 48"><g id="person_09"><path id="person_09_1_" d="M24,17c-1.381,0-2.5,1.119-2.5,2.5S22.62,22,24,22c1.381,0,2.5-1.119,2.5-2.5S25.381,17,24,17z M22,38V28l-3,0 c-0.552,0-1-0.448-1-1v-2c0-0.552,0.448-1,1-1h10c0.552,0,1,0.448,1,1v2c0,0.552-0.448,1-1,1h-3l0,0v10" style="fill:none;stroke:#000;stroke-width:.72;stroke-linejoin:round;stroke-miterlimit:10"/></g></svg>