<svg xmlns="http://www.w3.org/2000/svg" xmlns:xlink="http://www.w3.org/1999/xlink" x="0" y="0" version="1.1" viewBox="0 0 48 48" xml:space="preserve" style="enable-background:new 0 0 48 48"><g id="person_07"><path id="person_07_1_" d="M24,10c-1.381,0-2.5,1.119-2.5,2.5S22.619,15,24,15s2.5-1.119,2.5-2.5S25.381,10,24,10z M29,21H19c-0.552,0-1-0.448-1-1v-2 c0-0.552,0.448-1,1-1h10c0.552,0,1,0.448,1,1v2C30,20.553,29.553,21,29,21z M22,38V28l-3,0c-0.552,0-1-0.448-1-1v-2 c0-0.552,0.448-1,1-1h10c0.552,0,1,0.448,1,1v2c0,0.552-0.448,1-1,1h-3l0,0v10" style="fill:none;stroke:#000;stroke-width:.72;stroke-linejoin:round;stroke-miterlimit:10"/></g></svg>