<svg xmlns="http://www.w3.org/2000/svg" xmlns:xlink="http://www.w3.org/1999/xlink" x="0" y="0" version="1.1" viewBox="0 0 48 48" xml:space="preserve" style="enable-background:new 0 0 48 48"><g id="rainy"><path id="rainy_1_" d="M14,34.464L16,31 M17.5,37l3.5-6 M24,34.464L26,31 M27.5,37l3.5-6 M33.426,16c-0.627,0-1.458,0.108-2.02,0.299 C30.24,13.304,27.335,11,23.927,11c-4.177,0-7.606,3.537-7.992,7.613C15.254,18.225,14.469,18,13.631,18 C11.058,18,9,20.086,9,22.658c0,2.573,2.058,4.309,4.631,4.342h19.795C36.504,26.967,39,24.652,39,21.574S36.504,16,33.426,16z" style="fill:none;stroke:#000;stroke-width:.72;stroke-linecap:round;stroke-linejoin:round;stroke-miterlimit:10"/></g></svg>