<svg xmlns="http://www.w3.org/2000/svg" xmlns:xlink="http://www.w3.org/1999/xlink" x="0" y="0" version="1.1" viewBox="0 0 48 48" xml:space="preserve" style="enable-background:new 0 0 48 48"><g id="seattle"><rect style="fill:#fff" width="48" height="48"/><g id="seattle_2_"><line style="fill:none;stroke:#000;stroke-width:.72;stroke-linecap:round;stroke-linejoin:round;stroke-miterlimit:10" x1="24" x2="24" y1="9" y2="14"/><line style="fill:none;stroke:#000;stroke-width:.72;stroke-linejoin:round;stroke-miterlimit:10" x1="22" x2="22" y1="30" y2="39"/><line style="fill:none;stroke:#000;stroke-width:.72;stroke-linejoin:round;stroke-miterlimit:10" x1="24" x2="24" y1="30" y2="39"/><line style="fill:none;stroke:#000;stroke-width:.72;stroke-linejoin:round;stroke-miterlimit:10" x1="26" x2="26" y1="30" y2="39"/><line style="fill:none;stroke:#000;stroke-width:.72;stroke-linejoin:round;stroke-miterlimit:10" x1="28" x2="28" y1="30" y2="39"/><line style="fill:none;stroke:#000;stroke-width:.72;stroke-linejoin:round;stroke-miterlimit:10" x1="20" x2="20" y1="30" y2="39"/><polyline style="fill:none;stroke:#000;stroke-width:.72;stroke-linecap:round;stroke-miterlimit:10" points="30 20 28 18 28 16 20 16 20 18 18 20"/><line style="fill:none;stroke:#000;stroke-width:.72;stroke-linejoin:round;stroke-miterlimit:10" x1="9" x2="39" y1="24" y2="24"/><rect style="fill:none;stroke:#000;stroke-width:.72;stroke-linecap:round;stroke-miterlimit:10" width="24" height="4" x="12" y="22"/><rect style="fill:none;stroke:#000;stroke-width:.72;stroke-linecap:round;stroke-miterlimit:10" width="2" height="2" x="23" y="14"/><line style="fill:none;stroke:#000;stroke-width:.72;stroke-linecap:round;stroke-linejoin:round;stroke-miterlimit:10" x1="18" x2="18" y1="26" y2="28"/><line style="fill:none;stroke:#000;stroke-width:.72;stroke-linecap:round;stroke-linejoin:round;stroke-miterlimit:10" x1="20" x2="20" y1="26" y2="28"/><line style="fill:none;stroke:#000;stroke-width:.72;stroke-linecap:round;stroke-linejoin:round;stroke-miterlimit:10" x1="22" x2="22" y1="26" y2="28"/><line style="fill:none;stroke:#000;stroke-width:.72;stroke-linecap:round;stroke-linejoin:round;stroke-miterlimit:10" x1="24" x2="24" y1="26" y2="28"/><line style="fill:none;stroke:#000;stroke-width:.72;stroke-linecap:round;stroke-linejoin:round;stroke-miterlimit:10" x1="26" x2="26" y1="26" y2="28"/><line style="fill:none;stroke:#000;stroke-width:.72;stroke-linecap:round;stroke-linejoin:round;stroke-miterlimit:10" x1="28" x2="28" y1="26" y2="28"/><line style="fill:none;stroke:#000;stroke-width:.72;stroke-linecap:round;stroke-linejoin:round;stroke-miterlimit:10" x1="30" x2="30" y1="26" y2="28"/><line style="fill:none;stroke:#000;stroke-width:.72;stroke-linecap:round;stroke-linejoin:round;stroke-miterlimit:10" x1="18" x2="18" y1="20" y2="22"/><polyline style="fill:none;stroke:#000;stroke-width:.72;stroke-linecap:round;stroke-miterlimit:10" points="32 22 32 20 16 20 16 22"/><line style="fill:none;stroke:#000;stroke-width:.72;stroke-linecap:round;stroke-linejoin:round;stroke-miterlimit:10" x1="20" x2="20" y1="20" y2="22"/><line style="fill:none;stroke:#000;stroke-width:.72;stroke-linecap:round;stroke-linejoin:round;stroke-miterlimit:10" x1="22" x2="22" y1="20" y2="22"/><line style="fill:none;stroke:#000;stroke-width:.72;stroke-linecap:round;stroke-linejoin:round;stroke-miterlimit:10" x1="24" x2="24" y1="20" y2="22"/><line style="fill:none;stroke:#000;stroke-width:.72;stroke-linecap:round;stroke-linejoin:round;stroke-miterlimit:10" x1="26" x2="26" y1="20" y2="22"/><line style="fill:none;stroke:#000;stroke-width:.72;stroke-linecap:round;stroke-linejoin:round;stroke-miterlimit:10" x1="28" x2="28" y1="20" y2="22"/><line style="fill:none;stroke:#000;stroke-width:.72;stroke-linecap:round;stroke-linejoin:round;stroke-miterlimit:10" x1="30" x2="30" y1="20" y2="22"/><polyline style="fill:none;stroke:#000;stroke-width:.72;stroke-linecap:round;stroke-miterlimit:10" points="16 26 16 28 32 28 32 26"/><polyline style="fill:none;stroke:#000;stroke-width:.72;stroke-linecap:round;stroke-miterlimit:10" points="18 28 18 30 30 30 30 28"/></g></g></svg>