<svg xmlns="http://www.w3.org/2000/svg" xmlns:xlink="http://www.w3.org/1999/xlink" x="0" y="0" version="1.1" viewBox="0 0 48 48" xml:space="preserve" style="enable-background:new 0 0 48 48"><g id="server_rack"><path id="server_rack_1_" d="M35,39H13v-5h22V39z M27,36h6 M15,36h1 M17,36h1 M19,36h1 M35,29H13v5h22V29z M27,31h6 M15,31h1 M17,31h1 M19,31h1 M35,24H13v5h22 V24z M27,26h6 M15,26h1 M17,26h1 M19,26h1 M35,19H13v5h22V19z M27,21h6 M15,21h1 M17,21h1 M19,21h1 M35,14H13v5h22V14z M27,16h6 M15,16h1 M17,16h1 M19,16h1 M35,9H13v5h22V9z M27,11h6 M15,11h1 M17,11h1 M19,11h1" style="fill:none;stroke:#000;stroke-width:.72;stroke-linejoin:round;stroke-miterlimit:10"/></g></svg>