<svg xmlns="http://www.w3.org/2000/svg" xmlns:xlink="http://www.w3.org/1999/xlink" x="0" y="0" version="1.1" viewBox="0 0 48 48" xml:space="preserve" style="enable-background:new 0 0 48 48"><g id="shop"><g id="shop_1_"><line style="fill:none;stroke:#000;stroke-width:.72;stroke-miterlimit:10" x1="39" x2="9" y1="39" y2="39"/><path style="fill:none;stroke:#000;stroke-width:.72;stroke-linecap:round;stroke-linejoin:round;stroke-miterlimit:10" d="M37,27v12 M11,27v12 M19,27h-5v12h5V27z M14.014,33H19 M34,36v-9H24v9H34z M9,9v10h30V9H9z M37,24v-4.401l0-0.108V14H11v5.491V24"/><g><path style="fill:none;stroke:#000;stroke-width:.72;stroke-linecap:round;stroke-miterlimit:10" d="M18,22 c0,1.105-0.895,2-2,2s-2-0.895-2-2"/><path style="fill:none;stroke:#000;stroke-width:.72;stroke-linecap:round;stroke-miterlimit:10" d="M22,22 c0,1.105-0.895,2-2,2s-2-0.895-2-2"/><path style="fill:none;stroke:#000;stroke-width:.72;stroke-linecap:round;stroke-miterlimit:10" d="M26,22 c0,1.105-0.895,2-2,2c-1.105,0-2-0.895-2-2"/><path style="fill:none;stroke:#000;stroke-width:.72;stroke-linecap:round;stroke-miterlimit:10" d="M30,22 c0,1.105-0.895,2-2,2s-2-0.895-2-2"/><path style="fill:none;stroke:#000;stroke-width:.72;stroke-linecap:round;stroke-miterlimit:10" d="M34,22 c0,1.105-0.895,2-2,2c-1.105,0-2-0.895-2-2"/><path style="fill:none;stroke:#000;stroke-width:.72;stroke-linecap:round;stroke-miterlimit:10" d="M14,22 c0,1.105-0.895,2-2,2"/><path style="fill:none;stroke:#000;stroke-width:.72;stroke-linecap:round;stroke-miterlimit:10" d="M36,24 c-1.105,0-2-0.895-2-2"/><line style="fill:none;stroke:#000;stroke-width:.72;stroke-linecap:round;stroke-miterlimit:10" x1="11" x2="12" y1="24" y2="24"/><line style="fill:none;stroke:#000;stroke-width:.72;stroke-linecap:round;stroke-miterlimit:10" x1="36" x2="37" y1="24" y2="24"/></g></g></g></svg>