<svg xmlns="http://www.w3.org/2000/svg" xmlns:xlink="http://www.w3.org/1999/xlink" x="0" y="0" version="1.1" viewBox="0 0 48 48" xml:space="preserve" style="enable-background:new 0 0 48 48"><g id="steering_wheel"><path id="steering-wheel_1_" d="M39,24c0,8.284-6.716,15-15,15S9,32.284,9,24S15.716,9,24,9S39,15.716,39,24z M24,12c-6.627,0-12,5.373-12,12s5.373,12,12,12 s12-5.373,12-12S30.627,12,24,12z M24,20c-2.209,0-4,1.791-4,4s1.791,4,4,4s4-1.791,4-4S26.209,20,24,20z M36,24h-8 M20,24h-8 M24,28v8" style="fill:none;stroke:#000;stroke-width:.72;stroke-linecap:round;stroke-linejoin:round;stroke-miterlimit:10"/></g></svg>