<svg xmlns="http://www.w3.org/2000/svg" xmlns:xlink="http://www.w3.org/1999/xlink" x="0" y="0" version="1.1" viewBox="0 0 48 48" xml:space="preserve" style="enable-background:new 0 0 48 48"><g id="target"><g id="target_2_"><path style="fill:none;stroke:#000;stroke-width:.7199;stroke-linecap:round;stroke-linejoin:round;stroke-miterlimit:10" d="M9,24c0-8.284,6.716-15,15-15c8.284,0,15,6.716,15,15c0,8.284-6.716,15-15,15C15.715,39,9,32.284,9,24z M24,34 c5.523,0,10-4.477,10-10c0-5.523-4.477-10-10-10c-5.523,0-10,4.477-10,10C14,29.523,18.477,34,24,34z M24,29c2.761,0,5-2.239,5-5 c0-2.761-2.239-5-5-5c-2.761,0-5,2.239-5,5C19,26.761,21.238,29,24,29z"/><ellipse cx="24" cy="24" rx="1" ry="1" transform="matrix(1 -0.0011 0.0011 1 -0.0264 0.0264)"/></g></g></svg>