<svg xmlns="http://www.w3.org/2000/svg" xmlns:xlink="http://www.w3.org/1999/xlink" x="0" y="0" version="1.1" viewBox="0 0 48 48" xml:space="preserve" style="enable-background:new 0 0 48 48"><g id="target_area"><g id="target_area_1_"><ellipse cx="24" cy="24" rx="1" ry="1" transform="matrix(1 -0.0011 0.0011 1 -0.0264 0.0264)"/><path style="fill:none;stroke:#000;stroke-width:.7199;stroke-linejoin:round;stroke-miterlimit:10" d="M14,24 c0-5.523,4.477-10,10-10c5.523,0,10,4.477,10,10c0,5.523-4.477,10-10,10C18.477,34,14,29.523,14,24z M24,29c2.761,0,5-2.239,5-5 c0-2.761-2.239-5-5-5c-2.761,0-5,2.239-5,5C19,26.761,21.239,29,24,29z M39,39V9H14 M9,9v30h25"/></g></g></svg>