<svg xmlns="http://www.w3.org/2000/svg" xmlns:xlink="http://www.w3.org/1999/xlink" x="0" y="0" version="1.1" viewBox="0 0 48 48" xml:space="preserve" style="enable-background:new 0 0 48 48"><g id="tokyo_temple"><rect style="fill:#fff" width="48" height="48"/><g id="tokyo_temple_1_"><line style="fill:none;stroke:#000;stroke-width:.72;stroke-linejoin:round;stroke-miterlimit:10" x1="24" x2="24" y1="9" y2="12"/><line style="fill:none;stroke:#000;stroke-width:.72;stroke-linecap:round;stroke-linejoin:round;stroke-miterlimit:10" x1="20" x2="28" y1="19" y2="19"/><polygon style="fill:none;stroke:#000;stroke-width:.72;stroke-linecap:round;stroke-linejoin:round;stroke-miterlimit:10" points="30 15 18 15 24 12"/><path style="fill:none;stroke:#000;stroke-width:.72;stroke-linecap:round;stroke-linejoin:round;stroke-miterlimit:10" d="M16,21c0,1.105,0.895,2,2,2h12c1.105,0,2-0.895,2-2"/><path style="fill:none;stroke:#000;stroke-width:.72;stroke-linecap:round;stroke-linejoin:round;stroke-miterlimit:10" d="M34,27c0,1.105-0.895,2-2,2H16c-1.105,0-2-0.895-2-2"/><line style="fill:none;stroke:#000;stroke-width:.72;stroke-linejoin:round;stroke-miterlimit:10" x1="9" x2="39" y1="39" y2="39"/><path style="fill:none;stroke:#000;stroke-width:.72;stroke-linejoin:round;stroke-miterlimit:10" d="M30,13v2 c0,1.105-0.895,2-2,2h-8c-1.105,0-2-0.895-2-2v-2"/><line style="fill:none;stroke:#000;stroke-width:.72;stroke-linecap:round;stroke-linejoin:round;stroke-miterlimit:10" x1="24" x2="24" y1="19" y2="21"/><line style="fill:none;stroke:#000;stroke-width:.72;stroke-linecap:round;stroke-linejoin:round;stroke-miterlimit:10" x1="26" x2="26" y1="19" y2="21"/><line style="fill:none;stroke:#000;stroke-width:.72;stroke-linecap:round;stroke-linejoin:round;stroke-miterlimit:10" x1="28" x2="28" y1="17" y2="21"/><line style="fill:none;stroke:#000;stroke-width:.72;stroke-linecap:round;stroke-linejoin:round;stroke-miterlimit:10" x1="22" x2="22" y1="19" y2="21"/><line style="fill:none;stroke:#000;stroke-width:.72;stroke-linecap:round;stroke-linejoin:round;stroke-miterlimit:10" x1="20" x2="20" y1="17" y2="21"/><line style="fill:none;stroke:#000;stroke-width:.72;stroke-linecap:round;stroke-linejoin:round;stroke-miterlimit:10" x1="18" x2="30" y1="25" y2="25"/><line style="fill:none;stroke:#000;stroke-width:.72;stroke-linecap:round;stroke-linejoin:round;stroke-miterlimit:10" x1="24" x2="24" y1="25" y2="27"/><line style="fill:none;stroke:#000;stroke-width:.72;stroke-linecap:round;stroke-linejoin:round;stroke-miterlimit:10" x1="26" x2="26" y1="25" y2="27"/><line style="fill:none;stroke:#000;stroke-width:.72;stroke-linecap:round;stroke-linejoin:round;stroke-miterlimit:10" x1="28" x2="28" y1="25" y2="27"/><line style="fill:none;stroke:#000;stroke-width:.72;stroke-linecap:round;stroke-linejoin:round;stroke-miterlimit:10" x1="30" x2="30" y1="23" y2="27"/><line style="fill:none;stroke:#000;stroke-width:.72;stroke-linecap:round;stroke-linejoin:round;stroke-miterlimit:10" x1="22" x2="22" y1="25" y2="27"/><line style="fill:none;stroke:#000;stroke-width:.72;stroke-linecap:round;stroke-linejoin:round;stroke-miterlimit:10" x1="20" x2="20" y1="25" y2="27"/><line style="fill:none;stroke:#000;stroke-width:.72;stroke-linecap:round;stroke-linejoin:round;stroke-miterlimit:10" x1="18" x2="18" y1="23" y2="27"/><line style="fill:none;stroke:#000;stroke-width:.72;stroke-linecap:round;stroke-linejoin:round;stroke-miterlimit:10" x1="16" x2="32" y1="31" y2="31"/><line style="fill:none;stroke:#000;stroke-width:.72;stroke-linecap:round;stroke-linejoin:round;stroke-miterlimit:10" x1="22" x2="22" y1="31" y2="33"/><line style="fill:none;stroke:#000;stroke-width:.72;stroke-linecap:round;stroke-linejoin:round;stroke-miterlimit:10" x1="24" x2="24" y1="31" y2="33"/><line style="fill:none;stroke:#000;stroke-width:.72;stroke-linecap:round;stroke-linejoin:round;stroke-miterlimit:10" x1="26" x2="26" y1="31" y2="33"/><line style="fill:none;stroke:#000;stroke-width:.72;stroke-linecap:round;stroke-linejoin:round;stroke-miterlimit:10" x1="28" x2="28" y1="31" y2="33"/><line style="fill:none;stroke:#000;stroke-width:.72;stroke-linecap:round;stroke-linejoin:round;stroke-miterlimit:10" x1="30" x2="30" y1="31" y2="33"/><line style="fill:none;stroke:#000;stroke-width:.72;stroke-linecap:round;stroke-linejoin:round;stroke-miterlimit:10" x1="32" x2="32" y1="29" y2="33"/><line style="fill:none;stroke:#000;stroke-width:.72;stroke-linecap:round;stroke-linejoin:round;stroke-miterlimit:10" x1="20" x2="20" y1="31" y2="33"/><line style="fill:none;stroke:#000;stroke-width:.72;stroke-linecap:round;stroke-linejoin:round;stroke-miterlimit:10" x1="18" x2="18" y1="31" y2="33"/><line style="fill:none;stroke:#000;stroke-width:.72;stroke-linecap:round;stroke-linejoin:round;stroke-miterlimit:10" x1="16" x2="16" y1="29" y2="33"/><line style="fill:none;stroke:#000;stroke-width:.72;stroke-linecap:round;stroke-linejoin:round;stroke-miterlimit:10" x1="22" x2="22" y1="37" y2="39"/><line style="fill:none;stroke:#000;stroke-width:.72;stroke-linecap:round;stroke-linejoin:round;stroke-miterlimit:10" x1="24" x2="24" y1="37" y2="39"/><line style="fill:none;stroke:#000;stroke-width:.72;stroke-linecap:round;stroke-linejoin:round;stroke-miterlimit:10" x1="26" x2="26" y1="37" y2="39"/><line style="fill:none;stroke:#000;stroke-width:.72;stroke-linecap:round;stroke-linejoin:round;stroke-miterlimit:10" x1="28" x2="28" y1="37" y2="39"/><line style="fill:none;stroke:#000;stroke-width:.72;stroke-linecap:round;stroke-linejoin:round;stroke-miterlimit:10" x1="30" x2="30" y1="37" y2="39"/><polyline style="fill:none;stroke:#000;stroke-width:.72;stroke-linecap:round;stroke-miterlimit:10" points="14 39 14 37 34 37 34 39"/><line style="fill:none;stroke:#000;stroke-width:.72;stroke-linecap:round;stroke-linejoin:round;stroke-miterlimit:10" x1="32" x2="32" y1="35" y2="39"/><line style="fill:none;stroke:#000;stroke-width:.72;stroke-linecap:round;stroke-linejoin:round;stroke-miterlimit:10" x1="20" x2="20" y1="37" y2="39"/><line style="fill:none;stroke:#000;stroke-width:.72;stroke-linecap:round;stroke-linejoin:round;stroke-miterlimit:10" x1="18" x2="18" y1="37" y2="39"/><line style="fill:none;stroke:#000;stroke-width:.72;stroke-linecap:round;stroke-linejoin:round;stroke-miterlimit:10" x1="16" x2="16" y1="35" y2="39"/><polyline style="fill:none;stroke:#000;stroke-width:.72;stroke-linejoin:round;stroke-miterlimit:10" points="14 26 14 27 34 27 34 26"/><polyline style="fill:none;stroke:#000;stroke-width:.72;stroke-linejoin:round;stroke-miterlimit:10" points="12 32 12 33 36 33 36 32"/><polyline style="fill:none;stroke:#000;stroke-width:.72;stroke-linejoin:round;stroke-miterlimit:10" points="16 20 16 21 32 21 32 20"/><path style="fill:none;stroke:#000;stroke-width:.72;stroke-linecap:round;stroke-linejoin:round;stroke-miterlimit:10" d="M36,33c0,1.105-0.895,2-2,2H14c-1.105,0-2-0.895-2-2"/></g></g></svg>