<svg xmlns="http://www.w3.org/2000/svg" xmlns:xlink="http://www.w3.org/1999/xlink" x="0" y="0" version="1.1" viewBox="0 0 48 48" xml:space="preserve" style="enable-background:new 0 0 48 48"><g id="tradeoff_analytics"><path id="tradeoff_analytics_1_" d="M8,24h32 M19,38h10 M24,24v14 M33,12c-2.761,0-5,2.239-5,5s2.239,5,5,5s5-2.239,5-5S35.761,12,33,12z M12,18c-1.105,0-2,0.895-2,2 c0,1.105,0.895,2,2,2s2-0.895,2-2C14,18.896,13.105,18,12,18z M20,18c-1.105,0-2,0.895-2,2c0,1.105,0.895,2,2,2s2-0.895,2-2 C22,18.896,21.105,18,20,18z M16,12c-1.105,0-2,0.895-2,2s0.895,2,2,2s2-0.895,2-2S17.105,12,16,12z" style="fill:none;stroke:#000;stroke-width:.72;stroke-miterlimit:10"/></g></svg>