<svg xmlns="http://www.w3.org/2000/svg" xmlns:xlink="http://www.w3.org/1999/xlink" x="0" y="0" version="1.1" viewBox="0 0 48 48" xml:space="preserve" style="enable-background:new 0 0 48 48"><g id="user_insights"><path id="user_insights_1_" d="M18.538,24.05c-1.283-1.27-1.283-3.329,0-4.599c1.283-1.27,3.318-1.27,4.601,0L24,20.302l0.86-0.851c1.283-1.27,3.319-1.27,4.602,0 c1.282,1.27,1.282,3.329,0,4.599L24,29.502L18.538,24.05z M36,15V9 M33,12h6 M12,39v-6 M9,36h6 M30,12H14c-1.1,0-2,0.9-2,2v16 M18,36h16c1.1,0,2-0.9,2-2V18" style="fill:none;stroke:#000;stroke-width:.72;stroke-linejoin:round;stroke-miterlimit:10"/></g></svg>