<svg xmlns="http://www.w3.org/2000/svg" xmlns:xlink="http://www.w3.org/1999/xlink" x="0" y="0" version="1.1" viewBox="0 0 48 48" xml:space="preserve" style="enable-background:new 0 0 48 48"><g id="washington_dc_monument"><rect style="fill:#fff" width="48" height="48"/><g id="washington_dc_monument_1_"><polyline style="fill:none;stroke:#000;stroke-width:.72;stroke-linecap:round;stroke-linejoin:round;stroke-miterlimit:10" points="22 38 22 13 24 9 26 13 26 38"/><line style="fill:none;stroke:#000;stroke-width:.72;stroke-miterlimit:10" x1="18" x2="18" y1="30" y2="38"/><line style="fill:none;stroke:#000;stroke-width:.72;stroke-miterlimit:10" x1="32" x2="32" y1="30" y2="38"/><line style="fill:none;stroke:#000;stroke-width:.72;stroke-miterlimit:10" x1="14" x2="14" y1="30" y2="38"/><line style="fill:none;stroke:#000;stroke-width:.72;stroke-miterlimit:10" x1="36" x2="36" y1="30" y2="38"/><line style="fill:none;stroke:#000;stroke-width:.72;stroke-miterlimit:10" x1="28" x2="28" y1="30" y2="38"/><line style="fill:none;stroke:#000;stroke-width:.72;stroke-linecap:round;stroke-miterlimit:10" x1="9" x2="39" y1="38" y2="38"/><rect style="fill:none;stroke:#000;stroke-width:.72;stroke-miterlimit:10" width="2" height="2" x="18" y="30"/><rect style="fill:none;stroke:#000;stroke-width:.72;stroke-miterlimit:10" width="2" height="2" x="14" y="30"/><line style="fill:none;stroke:#000;stroke-width:.72;stroke-linecap:round;stroke-linejoin:round;stroke-miterlimit:10" x1="10" x2="10" y1="30" y2="38"/><rect style="fill:none;stroke:#000;stroke-width:.72;stroke-miterlimit:10" width="2" height="2" x="10" y="30"/><rect style="fill:none;stroke:#000;stroke-width:.72;stroke-miterlimit:10" width="2" height="2" x="28" y="30"/><rect style="fill:none;stroke:#000;stroke-width:.72;stroke-miterlimit:10" width="2" height="2" x="32" y="30"/><rect style="fill:none;stroke:#000;stroke-width:.72;stroke-miterlimit:10" width="2" height="2" x="36" y="30"/></g></g></svg>