<svg xmlns="http://www.w3.org/2000/svg" xmlns:xlink="http://www.w3.org/1999/xlink" id="Layer_1" x="0" y="0" version="1.1" viewBox="0 0 48 48" xml:space="preserve" style="enable-background:new 0 0 48 48"><g id="yoga_03"><g id="yoga_3_1_"><path id="XMLID_590_" d="M22.365,13.123c0.892-0.27,1.899-0.098,2.665,0.547c1.204,1.014,1.359,2.813,0.345,4.018c-0.748,0.889-1.924,1.204-2.973,0.902 l0,0c1.501,0.356,2.593,1.801,2.593,3.412v6.227c-0.006,0.736,0.305,1.368,1.086,1.989L36.374,36.2" style="fill:none;stroke:#000;stroke-width:.72;stroke-linecap:round;stroke-linejoin:round;stroke-miterlimit:10"/><path style="fill:none;stroke:#000;stroke-width:.72;stroke-linejoin:round;stroke-miterlimit:10" d="M8,39h32 M21,19v-8.5 C21,9.672,20.328,9,19.5,9S18,9.672,18,10.5v14.714c0,4.562,3.739,6.501,3.739,6.501l13.136,7.084 c0.717,0.414,1.635,0.168,2.049-0.549s0.168-1.635-0.549-2.049 M17,27h-3c-1,0-2,1-2,2v8.5c0,0.828,0.672,1.5,1.5,1.5 s1.5-0.672,1.5-1.5V30h3"/></g></g></svg>