<svg xmlns="http://www.w3.org/2000/svg" id="icon" viewBox="0 0 32 32"><defs><style>.cls-1{fill:none}</style></defs><title>watson-health--launch-study--3</title><circle cx="23" cy="25" r="1"/><path d="M26,22v6H6V22H26m0-2H6a2,2,0,0,0-2,2v6a2,2,0,0,0,2,2H26a2,2,0,0,0,2-2V22a2,2,0,0,0-2-2Z"/><polygon points="20.59 4.59 17 8.17 17 0 15 0 15 8.17 11.41 4.59 10 6 16 12 22 6 20.59 4.59"/><polygon points="20.59 10.59 16 15.16 11.41 10.59 10 12 16 18 22 12 20.59 10.59"/><rect width="12" height="2" x="8" y="24"/><rect id="_Transparent_Rectangle_" width="32" height="32" class="cls-1" data-name="&lt;Transparent Rectangle&gt;"/></svg>