<svg xmlns="http://www.w3.org/2000/svg" id="icon" viewBox="0 0 32 32"><defs><style>.cls-1{fill:#000100}.cls-2{fill:none}</style></defs><title>watson-health--pet-image-B</title><rect width="2" height="3" x="19" y="21" class="cls-1"/><rect width="2" height="3" x="19" class="cls-1"/><rect width="3" height="2" x="8" y="11" class="cls-1"/><rect width="3" height="2" x="29" y="11" class="cls-1"/><rect width="1.98" height="3" x="11.59" y="3.07" class="cls-1" transform="translate(0.45 10.24) rotate(-45)"/><rect width="1.98" height="3" x="26.44" y="17.92" class="cls-1" transform="translate(-5.69 25.08) rotate(-45)"/><rect width="3" height="1.98" x="11.09" y="18.42" class="cls-1" transform="translate(-10.04 14.59) rotate(-45)"/><rect width="3" height="1.98" x="25.93" y="3.58" class="cls-1" transform="translate(4.8 20.73) rotate(-45)"/><path d="M20,5a7,7,0,1,0,7,7A7,7,0,0,0,20,5Zm0,12A5,5,0,0,1,20,7Z" class="cls-1"/><path d="M5,18H0V32H5a3,3,0,0,0,3-3V27a3,3,0,0,0-.78-2A3,3,0,0,0,8,23V21A3,3,0,0,0,5,18ZM2,20H5a1,1,0,0,1,1,1v2a1,1,0,0,1-1,1H2Zm4,9a1,1,0,0,1-1,1H2V26H5a1,1,0,0,1,1,1Z" class="cls-1"/><polygon points="2 2 9 2 9 0 0 0 0 9 2 9 2 2" class="cls-1"/><rect id="_Transparent_Rectangle_" width="32" height="32" class="cls-2" data-name="&lt;Transparent Rectangle&gt;"/></svg>