<svg xmlns="http://www.w3.org/2000/svg" id="icon" viewBox="0 0 32 32"><defs><style>.cls-1{fill:none}</style></defs><title>watson-health--window--overlay</title><rect width="2" height="3" x="15" y="6"/><rect width="3" height="2" x="25" y="17"/><rect width="2" height="3" x="15" y="27"/><rect width="3" height="2" x="4" y="17"/><rect width="2" height="3" x="7.55" y="9.03" transform="translate(-4.95 9.14) rotate(-45)"/><rect width="3" height="2" x="21.96" y="9.54" transform="translate(-0.58 19.68) rotate(-45)"/><rect width="2" height="3" x="22.46" y="23.94" transform="translate(-11.12 24.04) rotate(-45)"/><rect width="3" height="2" x="7.04" y="24.45" transform="translate(-15.49 13.5) rotate(-45)"/><rect width="24" height="2" x="4" y="2"/><path d="M16,24a6,6,0,1,0-6-6A6,6,0,0,0,16,24Zm0-10v8a4,4,0,0,1,0-8Z" transform="translate(0 0)"/><rect id="_Transparent_Rectangle_" width="32" height="32" class="cls-1" data-name="&lt;Transparent Rectangle&gt;"/></svg>