<svg xmlns="http://www.w3.org/2000/svg" id="icon" viewBox="0 0 32 32"><defs><style>.cls-1{fill:none}</style></defs><title>watson-health--window--base</title><rect width="2" height="3" x="15" y="2"/><rect width="3" height="2" x="25" y="13"/><rect width="2" height="3" x="15" y="23"/><rect width="3" height="2" x="4" y="13"/><rect width="2" height="3" x="7.55" y="5.03" transform="translate(-2.12 7.97) rotate(-45)"/><rect width="3" height="2" x="21.96" y="5.54" transform="translate(2.25 18.51) rotate(-45)"/><rect width="2" height="3" x="22.46" y="19.94" transform="translate(-8.29 22.87) rotate(-45)"/><rect width="3" height="2" x="7.04" y="20.45" transform="translate(-12.66 12.33) rotate(-45)"/><rect width="24" height="2" x="4" y="28"/><path d="M16,20a6,6,0,1,0-6-6A6,6,0,0,0,16,20Zm0-10v8a4,4,0,0,1,0-8Z" transform="translate(0 0)"/><rect id="_Transparent_Rectangle_" width="32" height="32" class="cls-1" data-name="&lt;Transparent Rectangle&gt;"/></svg>