<svg xmlns="http://www.w3.org/2000/svg" xmlns:xlink="http://www.w3.org/1999/xlink" id="icon" width="24" height="24" x="0" style="enable-background:new 0 0 24 24" y="0" version="1.1" viewBox="0 0 24 24" xml:space="preserve"><style type="text/css">.st0{fill:none}.st1{opacity:0;fill:#fff;fill-opacity:0}</style><rect id="_Transparent_Rectangle_" width="24" height="24" class="st0"/><path d="M12,1C6,1,1,6,1,12s5,11,11,11s11-4.9,11-11S18.1,1,12,1z M16.2,17.5L12,13.3l-4.2,4.2l-1.3-1.3l4.2-4.2L6.5,7.8l1.3-1.3	l4.2,4.2l4.2-4.2l1.3,1.3L13.3,12l4.2,4.2L16.2,17.5z"/><path id="inner-path" d="M16.2,17.5L12,13.3l-4.2,4.2l-1.3-1.3l4.2-4.2L6.5,7.8l1.3-1.3l4.2,4.2l4.2-4.2l1.3,1.3	L13.3,12l4.2,4.2L16.2,17.5z" class="st1"/></svg>