<svg xmlns="http://www.w3.org/2000/svg" xmlns:xlink="http://www.w3.org/1999/xlink" id="Layer_1" width="24" height="24" x="0" style="enable-background:new 0 0 24 24" y="0" version="1.1" viewBox="0 0 24 24" xml:space="preserve"><style type="text/css">.st0{fill:none}.st1{opacity:0;fill:#fff;fill-opacity:0}</style><rect id="Transparent_Rectangle" width="24" height="24" class="st0"/><path id="Compound_Path" d="M12,1C5.9,1,1,5.9,1,12s4.9,11,11,11s11-4.9,11-11C23,5.9,18.1,1,12,1z M11.1,6h1.8v8h-1.8V6z M12,19.2	c-0.7,0-1.2-0.6-1.2-1.2s0.6-1.2,1.2-1.2s1.2,0.6,1.2,1.2S12.7,19.2,12,19.2z"/><path id="inner-path" d="M13.2,18c0,0.7-0.6,1.2-1.2,1.2s-1.2-0.6-1.2-1.2s0.6-1.2,1.2-1.2S13.2,17.3,13.2,18z M12.9,6	h-1.8v8h1.8V6z" class="st1"/></svg>