<svg xmlns="http://www.w3.org/2000/svg" xmlns:xlink="http://www.w3.org/1999/xlink" id="icon" width="20" height="20" x="0" style="enable-background:new 0 0 20 20" y="0" version="1.1" viewBox="0 0 20 20" xml:space="preserve"><style type="text/css">.st0{fill:none}.st1{opacity:0;fill:#fff;fill-opacity:0}</style><rect id="_Transparent_Rectangle_" width="20" height="20" class="st0"/><path d="M10,1c-4.9,0-9,4.1-9,9s4.1,9,9,9s9-4,9-9S15,1,10,1z M13.5,14.5L10,11l-3.5,3.5l-1-1L9,10L5.5,6.5l1-1L10,9l3.5-3.5l1,1	L11,10l3.5,3.5L13.5,14.5z"/><path id="inner-path" d="M13.5,14.5L10,11l-3.5,3.5l-1-1L9,10L5.5,6.5l1-1L10,9l3.5-3.5l1,1L11,10l3.5,3.5L13.5,14.5z" class="st1"/></svg>