<svg xmlns="http://www.w3.org/2000/svg" id="icon" viewBox="0 0 32 32"><defs><style>.cls-1{fill:none}</style></defs><title>Q-research--operation</title><polygon points="23 26 21 26 26 16 21 6 23 6 28 16 23 26"/><rect width="2" height="20" x="4" y="6"/><path d="M16,9H12a2,2,0,0,0-2,2V21a2,2,0,0,0,2,2h4a2,2,0,0,0,2-2V11A2,2,0,0,0,16,9Zm0,12H12V11h4Z"/><rect width="2" height="2" x="13" y="15"/><rect id="_Transparent_Rectangle_" width="32" height="32" class="cls-1" data-name="&lt;Transparent Rectangle&gt;"/></svg>