<svg xmlns="http://www.w3.org/2000/svg" id="icon" viewBox="0 0 32 32"><defs><style>.cls-1{fill:none}</style></defs><title>light</title><rect width="2" height="4.96" x="15" y="2"/><rect width="4.96" height="2" x="21.67" y="6.85" transform="translate(1.52 19.37) rotate(-45)"/><rect width="4.96" height="2" x="25.04" y="15"/><rect width="2" height="4.96" x="23.15" y="21.67" transform="translate(-10 24.15) rotate(-45)"/><rect width="2" height="4.96" x="15" y="25.04"/><rect width="4.96" height="2" x="5.37" y="23.15" transform="translate(-14.77 12.63) rotate(-45)"/><rect width="4.96" height="2" x="2" y="15"/><rect width="2" height="4.96" x="6.85" y="5.37" transform="translate(-3.25 7.85) rotate(-45)"/><path d="M16,12a4,4,0,1,1-4,4,4,4,0,0,1,4-4m0-2a6,6,0,1,0,6,6,6,6,0,0,0-6-6Z"/><rect id="_Transparent_Rectangle_" width="32" height="32" class="cls-1" data-name="&lt;Transparent Rectangle&gt;"/></svg>