<svg xmlns="http://www.w3.org/2000/svg" id="icon" width="32" height="32" viewBox="0 0 32 32"><defs><style>.cls-1{fill:none}</style></defs><title>certificate--check</title><rect width="6" height="2" x="6" y="16"/><rect width="10" height="2" x="6" y="12"/><rect width="10" height="2" x="6" y="8"/><path d="M14,26H4V6H28V16h2V6a2,2,0,0,0-2-2H4A2,2,0,0,0,2,6V26a2,2,0,0,0,2,2H14Z"/><polygon points="22 25.59 19.41 23 18 24.41 22 28.41 30 20.41 28.59 19 22 25.59"/><rect id="_Transparent_Rectangle_" width="32" height="32" class="cls-1" data-name="&lt;Transparent Rectangle&gt;"/></svg>