<svg xmlns="http://www.w3.org/2000/svg" id="icon" viewBox="0 0 32 32"><defs><style>.cls-1{fill:none}</style></defs><title>chat</title><path d="M17.74,30,16,29l4-7h6a2,2,0,0,0,2-2V8a2,2,0,0,0-2-2H6A2,2,0,0,0,4,8V20a2,2,0,0,0,2,2h9v2H6a4,4,0,0,1-4-4V8A4,4,0,0,1,6,4H26a4,4,0,0,1,4,4V20a4,4,0,0,1-4,4H21.16Z" transform="translate(0 0)"/><rect width="16" height="2" x="8" y="10"/><rect width="10" height="2" x="8" y="16"/><rect id="_Transparent_Rectangle_" width="32" height="32" class="cls-1" data-name="&lt;Transparent Rectangle&gt;"/></svg>