<svg xmlns="http://www.w3.org/2000/svg" id="icon" width="32" height="32" viewBox="0 0 32 32"><defs><style>.cls-1{fill:none}</style></defs><title>distribute--vertical-top</title><path d="M24,30H8a2.0021,2.0021,0,0,1-2-2V24a2.0021,2.0021,0,0,1,2-2H24a2.0021,2.0021,0,0,1,2,2v4A2.0021,2.0021,0,0,1,24,30ZM8,24v4H24V24Z"/><rect width="28" height="2" x="2" y="18"/><path d="M20,14H12a2.0021,2.0021,0,0,1-2-2V8a2.0021,2.0021,0,0,1,2-2h8a2.0021,2.0021,0,0,1,2,2v4A2.0021,2.0021,0,0,1,20,14ZM12,8v4h8V8Z"/><rect width="28" height="2" x="2" y="2"/><rect id="_Transparent_Rectangle_" width="32" height="32" class="cls-1" data-name="&lt;Transparent Rectangle&gt;"/></svg>