<svg xmlns="http://www.w3.org/2000/svg" id="icon" width="32" height="32" viewBox="0 0 32 32"><defs><style>.cls-1{fill:none}</style></defs><title>enterprise</title><rect width="2" height="4" x="8" y="8"/><rect width="2" height="4" x="8" y="14"/><rect width="2" height="4" x="14" y="8"/><rect width="2" height="4" x="14" y="14"/><rect width="2" height="4" x="8" y="20"/><rect width="2" height="4" x="14" y="20"/><path d="M30,14a2,2,0,0,0-2-2H22V4a2,2,0,0,0-2-2H4A2,2,0,0,0,2,4V30H30ZM4,4H20V28H4ZM22,28V14h6V28Z"/><rect id="_Transparent_Rectangle_" width="32" height="32" class="cls-1" data-name="&lt;Transparent Rectangle&gt;"/></svg>