<svg xmlns="http://www.w3.org/2000/svg" id="icon" viewBox="0 0 32 32"><defs><style>.cls-1{fill:none}</style></defs><title>ISO--filled</title><rect width="3" height="6" x="21" y="13"/><path d="M28,6H4A2,2,0,0,0,2,8V24a2,2,0,0,0,2,2H28a2,2,0,0,0,2-2V8A2,2,0,0,0,28,6ZM8,21H6V11H8Zm9-8H12v2h3a2,2,0,0,1,2,2v2a2,2,0,0,1-2,2H10V19h5V17H12a2,2,0,0,1-2-2V13a2,2,0,0,1,2-2h5Zm9,6a2,2,0,0,1-2,2H21a2,2,0,0,1-2-2V13a2,2,0,0,1,2-2h3a2,2,0,0,1,2,2Z"/><rect id="_Transparent_Rectangle_" width="32" height="32" class="cls-1" data-name="&lt;Transparent Rectangle&gt;"/></svg>