<svg xmlns="http://www.w3.org/2000/svg" xmlns:xlink="http://www.w3.org/1999/xlink" id="icon" width="32" height="32" x="0" style="enable-background:new 0 0 32 32" y="0" version="1.1" viewBox="0 0 32 32" xml:space="preserve"><style type="text/css">.st0{fill:none}.st1{opacity:0;fill:#fff;fill-opacity:0}</style><rect id="_Transparent_Rectangle_" width="32" height="32" class="st0"/><path d="M16,2C8.3,2,2,8.3,2,16s6.3,14,14,14s14-6.3,14-14S23.7,2,16,2z M21.4,23L16,17.6L10.6,23L9,21.4l5.4-5.4L9,10.6L10.6,9	l5.4,5.4L21.4,9l1.6,1.6L17.6,16l5.4,5.4L21.4,23z"/><path id="inner-path" d="M21.4,23L16,17.6L10.6,23L9,21.4l5.4-5.4L9,10.6L10.6,9l5.4,5.4L21.4,9l1.6,1.6L17.6,16	l5.4,5.4L21.4,23z" class="st1"/></svg>