<svg xmlns="http://www.w3.org/2000/svg" id="icon" width="32" height="32" viewBox="0 0 32 32"><defs><style>.cls-1{fill:#1d1d1d}.cls-2{fill:none}</style></defs><title>mobile--audio</title><rect width="2" height="3" x="28" y="12" class="cls-1"/><rect width="2" height="13" x="24" y="7" class="cls-1"/><rect width="2" height="5" x="20" y="11" class="cls-1"/><rect width="2" height="9" x="16" y="9" class="cls-1"/><rect width="2" height="3" x="12" y="12" class="cls-1"/><circle cx="13.5" cy="24.5" r="1.5"/><path d="M20,30H7a2.0023,2.0023,0,0,1-2-2V4A2.0023,2.0023,0,0,1,7,2H20V4H7V28H20V24h2v4A2.0023,2.0023,0,0,1,20,30Z"/><rect id="_Transparent_Rectangle_" width="32" height="32" class="cls-2" data-name="&lt;Transparent Rectangle&gt;"/></svg>