<svg xmlns="http://www.w3.org/2000/svg" id="icon" width="32" height="32" viewBox="0 0 32 32"><defs><style>.cls-1{fill:none}</style></defs><title>partly-cloudy</title><rect width="4" height="2" x="27" y="15"/><rect width="4.243" height="2" x="23.086" y="5.794" transform="translate(2.5791 19.8139) rotate(-45)"/><rect width="2" height="4" x="15" y="1"/><rect width="4.243" height="2" x="4.672" y="24.208" transform="translate(-15.8349 12.1865) rotate(-45)"/><rect width="2" height="4.243" x="5.793" y="4.672" transform="translate(-2.8142 6.7932) rotate(-45)"/><rect width="4" height="2" x="1" y="15"/><path d="M26.7939,20.3418a6.9617,6.9617,0,0,0-1.8681-3.2671A8.485,8.485,0,0,0,25,16a9,9,0,1,0-14.585,7.0332A4.9771,4.9771,0,0,0,15,30H25a4.9947,4.9947,0,0,0,1.7939-9.6582ZM9,16a6.9955,6.9955,0,0,1,13.9849-.2969A6.8883,6.8883,0,0,0,20,15a7.04,7.04,0,0,0-6.7944,5.3418A4.986,4.986,0,0,0,11.5618,21.39,6.9675,6.9675,0,0,1,9,16ZM25,28H15a2.9945,2.9945,0,0,1-.6963-5.9082l.6587-.1572.0986-.67a4.9923,4.9923,0,0,1,9.878,0l.0986.6695.6587.1572A2.9945,2.9945,0,0,1,25,28Z"/><rect id="_Transparent_Rectangle_" width="32" height="32" class="cls-1" data-name="&lt;Transparent Rectangle&gt;"/></svg>