<svg xmlns="http://www.w3.org/2000/svg" id="icon" width="32" height="32" viewBox="0 0 32 32"><defs><style>.cls-1{fill:none}</style></defs><title>percentage</title><path d="M9,14a5,5,0,1,1,5-5A5.0055,5.0055,0,0,1,9,14ZM9,6a3,3,0,1,0,3,3A3.0033,3.0033,0,0,0,9,6Z"/><rect width="31.941" height="2" x=".029" y="15" transform="translate(-6.6274 16) rotate(-45)"/><path d="M23,28a5,5,0,1,1,5-5A5.0055,5.0055,0,0,1,23,28Zm0-8a3,3,0,1,0,3,3A3.0033,3.0033,0,0,0,23,20Z"/><rect id="_Transparent_Rectangle_" width="32" height="32" class="cls-1" data-name="&lt;Transparent Rectangle&gt;"/></svg>