<svg xmlns="http://www.w3.org/2000/svg" id="icon" width="32" height="32" viewBox="0 0 32 32"><defs><style>.cls-1{fill:none}</style></defs><title>product</title><rect width="6" height="2" x="8" y="18"/><rect width="10" height="2" x="8" y="22"/><path d="M26,4H6A2.0025,2.0025,0,0,0,4,6V26a2.0025,2.0025,0,0,0,2,2H26a2.0025,2.0025,0,0,0,2-2V6A2.0025,2.0025,0,0,0,26,4ZM18,6v4H14V6ZM6,26V6h6v6h8V6h6l.0012,20Z"/><rect id="_Transparent_Rectangle_" width="32" height="32" class="cls-1" data-name="&lt;Transparent Rectangle&gt;"/></svg>