<svg xmlns="http://www.w3.org/2000/svg" xmlns:xlink="http://www.w3.org/1999/xlink" id="icon" width="32" height="32" x="0" style="enable-background:new 0 0 32 32" y="0" version="1.1" viewBox="0 0 32 32" xml:space="preserve"><style type="text/css">.st0{fill:none}.st1{opacity:0;fill:#fff}</style><rect id="_Transparent_Rectangle_" width="32" height="32" class="st0"/><path d="M16,2C8.3,2,2,8.3,2,16s6.3,14,14,14s14-6.3,14-14S23.7,2,16,2z M16,22c-3.3,0-6-2.7-6-6s2.7-6,6-6s6,2.7,6,6S19.3,22,16,22	z"/><path id="inner-path" d="M16,10c-3.3,0-6,2.7-6,6s2.7,6,6,6s6-2.7,6-6S19.3,10,16,10z" class="st1"/></svg>