<svg xmlns="http://www.w3.org/2000/svg" id="icon" viewBox="0 0 32 32"><defs><style>.cls-1{fill:none}</style></defs><title>report</title><rect width="2" height="4" x="15" y="20"/><rect width="2" height="6" x="20" y="18"/><rect width="2" height="10" x="10" y="14"/><path d="M25,5H22V4a2,2,0,0,0-2-2H12a2,2,0,0,0-2,2V5H7A2,2,0,0,0,5,7V28a2,2,0,0,0,2,2H25a2,2,0,0,0,2-2V7A2,2,0,0,0,25,5ZM12,4h8V8H12ZM25,28H7V7h3v3H22V7h3Z"/><rect id="_Transparent_Rectangle_" width="32" height="32" class="cls-1" data-name="&lt;Transparent Rectangle&gt;"/></svg>