<svg xmlns="http://www.w3.org/2000/svg" id="icon" viewBox="0 0 32 32"><defs><style>.cls-1{fill:none}</style></defs><title>research--hinton-plot</title><rect width="4" height="4" x="2" y="2"/><rect width="4" height="4" x="10" y="2"/><rect width="4" height="4" x="18" y="2"/><rect width="4" height="4" x="26" y="2"/><rect width="4" height="4" x="2" y="10"/><rect width="4" height="4" x="10" y="10"/><rect width="4" height="4" x="18" y="10"/><rect width="4" height="4" x="26" y="10"/><rect width="4" height="4" x="2" y="18"/><rect width="4" height="4" x="10" y="18"/><rect width="4" height="4" x="18" y="18"/><rect width="4" height="4" x="26" y="18"/><rect width="4" height="4" x="2" y="26"/><rect width="4" height="4" x="10" y="26"/><rect width="4" height="4" x="18" y="26"/><rect width="4" height="4" x="26" y="26"/><rect id="_Transparent_Rectangle_" width="32" height="32" class="cls-1" data-name="&lt;Transparent Rectangle&gt;"/></svg>