<svg xmlns="http://www.w3.org/2000/svg" xmlns:xlink="http://www.w3.org/1999/xlink" id="icon" x="0" y="0" version="1.1" viewBox="0 0 32 32" xml:space="preserve" style="enable-background:new 0 0 32 32"><style type="text/css">.st0{fill:none}</style><title>catalog</title><rect width="4" height="4" x="17" y="24"/><rect width="4" height="4" x="24" y="24"/><rect width="4" height="4" x="17" y="17"/><rect width="4" height="4" x="24" y="17"/><path d="M28,11h-6V7c0-1.7-1.3-3-3-3h-6c-1.7,0-3,1.3-3,3v4H4c-0.6,0-1,0.4-1,1c0,0.1,0,0.1,0,0.2l1.9,12.1c0.1,1,1,1.7,2,1.7H15v-2	H6.9L5.2,13H28V11z M12,7c0-0.6,0.4-1,1-1h6c0.6,0,1,0.4,1,1v4h-8V7z"/><rect id="_Transparent_Rectangle_" width="32" height="32" class="st0"/></svg>