<svg xmlns="http://www.w3.org/2000/svg" id="icon" width="32" height="32" viewBox="0 0 32 32"><defs><style>.cls-1{fill:none}</style></defs><title>snooze</title><polygon points="20 14 20 12 12 12 12 14 17.5 14 12 20 12 22 20 22 20 20 14.507 20 20 14"/><rect width="1.999" height="5.072" x="24.5" y="3.965" transform="translate(2.859 19.913) rotate(-44.9446)"/><path d="M16,28A11,11,0,1,1,27,17,11.0125,11.0125,0,0,1,16,28ZM16,8a9,9,0,1,0,9,9A9.01,9.01,0,0,0,16,8Z"/><rect width="5.072" height="1.999" x="3.965" y="5.501" transform="translate(-2.6927 6.5094) rotate(-45.0554)"/><rect id="_Transparent_Rectangle_" width="32" height="32" class="cls-1" data-name="&lt;Transparent Rectangle&gt;"/></svg>