<svg xmlns="http://www.w3.org/2000/svg" id="icon" width="32" height="32" viewBox="0 0 32 32"><defs><style>.cls-1{fill:none}</style></defs><title>sunny</title><path d="M16,12a4,4,0,1,1-4,4,4.0045,4.0045,0,0,1,4-4m0-2a6,6,0,1,0,6,6,6,6,0,0,0-6-6Z" transform="translate(0 0.0049)"/><rect width="2" height="4.958" x="6.854" y="5.375" transform="translate(-3.253 7.8584) rotate(-45)"/><rect width="5" height="2" x="2" y="15.005"/><rect width="4.958" height="2" x="5.375" y="23.147" transform="translate(-14.7739 12.6305) rotate(-45)"/><rect width="2" height="5" x="15" y="25.005"/><rect width="2" height="4.958" x="23.147" y="21.668" transform="translate(-10.0018 24.1514) rotate(-45)"/><rect width="5" height="2" x="25" y="15.005"/><rect width="4.958" height="2" x="21.668" y="6.854" transform="translate(1.5191 19.3793) rotate(-45)"/><rect width="2" height="5" x="15" y="2.005"/><rect id="_Transparent_Rectangle_" width="32" height="32" class="cls-1" data-name="&lt;Transparent Rectangle&gt;"/></svg>