<svg xmlns="http://www.w3.org/2000/svg" id="icon" width="32" height="32" viewBox="0 0 32 32"><defs><style>.cls-1{fill:none}</style></defs><title>sunrise</title><rect width="27.998" height="2" x="2" y="27"/><path d="M16,20a4.0045,4.0045,0,0,1,4,4h2a6,6,0,0,0-12,0h2A4.0045,4.0045,0,0,1,16,20Z"/><rect width="5" height="2" x="25" y="22"/><rect width="4.958" height="2" x="21.668" y="14.854" transform="translate(-4.1378 21.7175) rotate(-45)"/><polygon points="16 4 11 9 12.41 10.41 15 7.83 15 8 15 15 17 15 17 8 17 7.83 19.59 10.41 21 9 16 4"/><rect width="2" height="4.958" x="6.854" y="13.374" transform="translate(-8.9099 10.1967) rotate(-45)"/><rect width="5" height="2" x="2" y="22"/><rect id="_Transparent_Rectangle_" width="32" height="32" class="cls-1" data-name="&lt;Transparent Rectangle&gt;"/></svg>