<svg xmlns="http://www.w3.org/2000/svg" id="icon" width="32" height="32" viewBox="0 0 32 32"><defs><style>.cls-1{fill:none}</style></defs><title>sunset</title><rect width="27.998" height="2" x="2" y="27.005"/><path d="M16,20a4.0045,4.0045,0,0,1,4,4h2a6,6,0,0,0-12,0h2A4.0045,4.0045,0,0,1,16,20Z" transform="translate(0 0.0049)"/><rect width="5" height="2" x="25" y="22.005"/><rect width="4.958" height="2" x="21.668" y="14.854" transform="translate(-4.1378 21.7224) rotate(-45)"/><polygon points="19.59 9.595 17 12.175 17 4.005 15 4.005 15 12.175 12.41 9.595 11 11.005 16 16.005 21 11.005 19.59 9.595"/><rect width="2" height="4.958" x="6.854" y="13.374" transform="translate(-8.9099 10.2015) rotate(-45)"/><rect width="5" height="2" x="2" y="22.005"/><rect id="_Transparent_Rectangle_" width="32" height="32" class="cls-1" data-name="&lt;Transparent Rectangle&gt;"/></svg>