<svg xmlns="http://www.w3.org/2000/svg" id="icon" viewBox="0 0 32 32"><defs><style>.cls-1{fill:none}</style></defs><title>unlink</title><rect width="2" height="4.83" x="5" y="3.59" transform="translate(-2.49 6) rotate(-45.01)"/><rect width="2" height="4.83" x="25" y="23.58" transform="translate(-10.77 25.99) rotate(-44.99)"/><rect width="2" height="4" x="11" y="2"/><rect width="4" height="2" x="2" y="11"/><rect width="4" height="2" x="26" y="19"/><rect width="2" height="4" x="19" y="26"/><path d="M16.58,21.07l-3.71,3.72a4,4,0,1,1-5.66-5.66l3.72-3.72L9.51,14,5.8,17.72a6,6,0,0,0-.06,8.54A6,6,0,0,0,10,28a6.07,6.07,0,0,0,4.32-1.8L18,22.49Z"/><path d="M15.41,10.93l3.72-3.72a4,4,0,1,1,5.66,5.66l-3.72,3.72L22.49,18l3.71-3.72a6,6,0,0,0,.06-8.54A6,6,0,0,0,22,4a6.07,6.07,0,0,0-4.32,1.8L14,9.51Z"/><rect id="_Transparent_Rectangle_" width="32" height="32" class="cls-1" data-name="&lt;Transparent Rectangle&gt;"/></svg>