<svg xmlns="http://www.w3.org/2000/svg" id="icon" viewBox="0 0 32 32"><defs><style>.cls-1{fill:none}</style></defs><title>view--mode-2</title><rect width="24" height="2" x="4" y="26"/><rect width="24" height="2" x="4" y="19"/><path d="M12,6v6H6V6h6m0-2H6A2,2,0,0,0,4,6v6a2,2,0,0,0,2,2h6a2,2,0,0,0,2-2V6a2,2,0,0,0-2-2Z"/><path d="M26,6v6H20V6h6m0-2H20a2,2,0,0,0-2,2v6a2,2,0,0,0,2,2h6a2,2,0,0,0,2-2V6a2,2,0,0,0-2-2Z"/><rect id="_Transparent_Rectangle_" width="32" height="32" class="cls-1" data-name="&lt;Transparent Rectangle&gt;"/></svg>