<svg xmlns="http://www.w3.org/2000/svg" id="icon" viewBox="0 0 32 32"><defs><style>.cls-1{fill:#010101}.cls-2{fill:none}</style></defs><title>watch</title><path d="M22,8H21V2H19V8H13V2H11V8H10a2,2,0,0,0-2,2V22a2,2,0,0,0,2,2h1v6h2V24h6v6h2V24h1a2,2,0,0,0,2-2V10A2,2,0,0,0,22,8ZM10,22V10H22V22Z" class="cls-1" transform="translate(0 0)"/><rect width="2" height="4" x="25" y="14" class="cls-1"/><rect id="_Transparent_Rectangle_" width="32" height="32" class="cls-2" data-name="&lt;Transparent Rectangle&gt;"/></svg>